<mxfile host="Electron" modified="2024-10-15T19:21:13.042Z" agent="Mozilla/5.0 (Windows NT 10.0; Win64; x64) AppleWebKit/537.36 (KHTML, like Gecko) draw.io/22.1.15 Chrome/120.0.6099.109 Electron/28.1.0 Safari/537.36" etag="N4uAgAFbQK5zlZ3wkPhU" version="22.1.15" type="device" pages="4">
  <diagram id="8ylef1WdiFbMsBTwHWfd" name="Feature Overview">
    <mxGraphModel dx="1434" dy="870" grid="1" gridSize="10" guides="1" tooltips="1" connect="1" arrows="1" fold="1" page="1" pageScale="1" pageWidth="827" pageHeight="1169" math="0" shadow="0">
      <root>
        <mxCell id="0" />
        <mxCell id="1" parent="0" />
      </root>
    </mxGraphModel>
  </diagram>
  <diagram id="6_2LdumI8zk_41E3QhXX" name="DB Schema">
    <mxGraphModel dx="794" dy="511" grid="1" gridSize="10" guides="1" tooltips="1" connect="1" arrows="1" fold="1" page="1" pageScale="1" pageWidth="827" pageHeight="1169" math="0" shadow="0">
      <root>
        <mxCell id="0" />
        <mxCell id="1" parent="0" />
        <mxCell id="hY7OV1x4AhEY16DIX3Ew-3" value="&lt;h1&gt;DB Structure&lt;/h1&gt;&lt;p&gt;&lt;/p&gt;&lt;ul&gt;&lt;li&gt;&lt;span style=&quot;background-color: initial;&quot;&gt;Entity can create collaborations, according app_awards&lt;/span&gt;&lt;/li&gt;&lt;ul&gt;&lt;li&gt;&lt;span style=&quot;background-color: initial;&quot;&gt;App_Awards can define how to process data, by &quot;access_token&quot;&lt;/span&gt;&lt;/li&gt;&lt;/ul&gt;&lt;li&gt;&lt;span style=&quot;background-color: initial;&quot;&gt;Entity can add its own awards&lt;/span&gt;&lt;/li&gt;&lt;li&gt;&lt;span style=&quot;background-color: initial;&quot;&gt;Entity can delete collaboration, if no collaborators exists&lt;/span&gt;&lt;/li&gt;&lt;li&gt;&lt;span style=&quot;background-color: initial;&quot;&gt;Entity can update some data of collaborations - some data can not be updated&lt;/span&gt;&lt;/li&gt;&lt;li&gt;&lt;span style=&quot;background-color: initial;&quot;&gt;Entity can add collaborators to collaboration&lt;/span&gt;&lt;/li&gt;&lt;li&gt;&lt;span style=&quot;background-color: initial;&quot;&gt;User can subscribe &quot;Public&quot; collaboration&lt;/span&gt;&lt;/li&gt;&lt;ul&gt;&lt;li&gt;&lt;span style=&quot;background-color: initial;&quot;&gt;Check &quot;access_limit&quot;&lt;/span&gt;&lt;/li&gt;&lt;li&gt;&lt;span style=&quot;background-color: initial;&quot;&gt;0 === unlimited access&lt;/span&gt;&lt;/li&gt;&lt;/ul&gt;&lt;li&gt;Approval flow for collaboration and collaborators&lt;/li&gt;&lt;/ul&gt;&lt;p&gt;&lt;/p&gt;" style="text;html=1;strokeColor=none;fillColor=none;spacing=5;spacingTop=-20;whiteSpace=wrap;overflow=hidden;rounded=0;" parent="1" vertex="1">
          <mxGeometry x="50" y="50" width="280" height="310" as="geometry" />
        </mxCell>
        <mxCell id="C9TnxPf5Wy7Ffhwj_l1F-1" value="user_entity" style="swimlane;fontStyle=0;childLayout=stackLayout;horizontal=1;startSize=30;horizontalStack=0;resizeParent=1;resizeParentMax=0;resizeLast=0;collapsible=1;marginBottom=0;whiteSpace=wrap;html=1;fillColor=#f8cecc;strokeColor=#b85450;" parent="1" vertex="1">
          <mxGeometry x="825" y="230" width="190" height="90" as="geometry" />
        </mxCell>
        <mxCell id="C9TnxPf5Wy7Ffhwj_l1F-2" value="user_id*: FK" style="text;strokeColor=none;fillColor=none;align=left;verticalAlign=middle;spacingLeft=4;spacingRight=4;overflow=hidden;points=[[0,0.5],[1,0.5]];portConstraint=eastwest;rotatable=0;whiteSpace=wrap;html=1;" parent="C9TnxPf5Wy7Ffhwj_l1F-1" vertex="1">
          <mxGeometry y="30" width="190" height="30" as="geometry" />
        </mxCell>
        <mxCell id="C9TnxPf5Wy7Ffhwj_l1F-3" value="Data" style="text;strokeColor=none;fillColor=none;align=left;verticalAlign=middle;spacingLeft=4;spacingRight=4;overflow=hidden;points=[[0,0.5],[1,0.5]];portConstraint=eastwest;rotatable=0;whiteSpace=wrap;html=1;" parent="C9TnxPf5Wy7Ffhwj_l1F-1" vertex="1">
          <mxGeometry y="60" width="190" height="30" as="geometry" />
        </mxCell>
        <mxCell id="C9TnxPf5Wy7Ffhwj_l1F-5" value="user" style="swimlane;fontStyle=0;childLayout=stackLayout;horizontal=1;startSize=30;horizontalStack=0;resizeParent=1;resizeParentMax=0;resizeLast=0;collapsible=1;marginBottom=0;whiteSpace=wrap;html=1;" parent="1" vertex="1">
          <mxGeometry x="850" y="90" width="140" height="60" as="geometry" />
        </mxCell>
        <mxCell id="C9TnxPf5Wy7Ffhwj_l1F-8" value="Data" style="text;strokeColor=none;fillColor=none;align=left;verticalAlign=middle;spacingLeft=4;spacingRight=4;overflow=hidden;points=[[0,0.5],[1,0.5]];portConstraint=eastwest;rotatable=0;whiteSpace=wrap;html=1;" parent="C9TnxPf5Wy7Ffhwj_l1F-5" vertex="1">
          <mxGeometry y="30" width="140" height="30" as="geometry" />
        </mxCell>
        <mxCell id="C9TnxPf5Wy7Ffhwj_l1F-9" style="edgeStyle=orthogonalEdgeStyle;rounded=0;orthogonalLoop=1;jettySize=auto;html=1;entryX=0.5;entryY=1;entryDx=0;entryDy=0;entryPerimeter=0;" parent="1" source="C9TnxPf5Wy7Ffhwj_l1F-1" target="C9TnxPf5Wy7Ffhwj_l1F-8" edge="1">
          <mxGeometry relative="1" as="geometry" />
        </mxCell>
        <mxCell id="C9TnxPf5Wy7Ffhwj_l1F-10" value="1:1&lt;br&gt;Cascade" style="edgeLabel;html=1;align=center;verticalAlign=middle;resizable=0;points=[];" parent="C9TnxPf5Wy7Ffhwj_l1F-9" vertex="1" connectable="0">
          <mxGeometry x="-0.2286" relative="1" as="geometry">
            <mxPoint as="offset" />
          </mxGeometry>
        </mxCell>
        <mxCell id="C9TnxPf5Wy7Ffhwj_l1F-11" value="app_awards" style="swimlane;fontStyle=0;childLayout=stackLayout;horizontal=1;startSize=30;horizontalStack=0;resizeParent=1;resizeParentMax=0;resizeLast=0;collapsible=1;marginBottom=0;whiteSpace=wrap;html=1;fillColor=#d5e8d4;strokeColor=#82b366;" parent="1" vertex="1">
          <mxGeometry x="690" y="390" width="170" height="240" as="geometry" />
        </mxCell>
        <mxCell id="C9TnxPf5Wy7Ffhwj_l1F-13" value="is_public: bool" style="text;strokeColor=none;fillColor=none;align=left;verticalAlign=middle;spacingLeft=4;spacingRight=4;overflow=hidden;points=[[0,0.5],[1,0.5]];portConstraint=eastwest;rotatable=0;whiteSpace=wrap;html=1;" parent="C9TnxPf5Wy7Ffhwj_l1F-11" vertex="1">
          <mxGeometry y="30" width="170" height="30" as="geometry" />
        </mxCell>
        <mxCell id="1_8agOoDox8RABBiWh2T-1" value="access_token: string" style="text;strokeColor=none;fillColor=none;align=left;verticalAlign=middle;spacingLeft=4;spacingRight=4;overflow=hidden;points=[[0,0.5],[1,0.5]];portConstraint=eastwest;rotatable=0;whiteSpace=wrap;html=1;" parent="C9TnxPf5Wy7Ffhwj_l1F-11" vertex="1">
          <mxGeometry y="60" width="170" height="30" as="geometry" />
        </mxCell>
        <mxCell id="C9TnxPf5Wy7Ffhwj_l1F-12" value="entity_id: FK" style="text;strokeColor=none;fillColor=none;align=left;verticalAlign=middle;spacingLeft=4;spacingRight=4;overflow=hidden;points=[[0,0.5],[1,0.5]];portConstraint=eastwest;rotatable=0;whiteSpace=wrap;html=1;" parent="C9TnxPf5Wy7Ffhwj_l1F-11" vertex="1">
          <mxGeometry y="90" width="170" height="30" as="geometry" />
        </mxCell>
        <mxCell id="1_8agOoDox8RABBiWh2T-2" value="label*: string" style="text;strokeColor=none;fillColor=none;align=left;verticalAlign=middle;spacingLeft=4;spacingRight=4;overflow=hidden;points=[[0,0.5],[1,0.5]];portConstraint=eastwest;rotatable=0;whiteSpace=wrap;html=1;" parent="C9TnxPf5Wy7Ffhwj_l1F-11" vertex="1">
          <mxGeometry y="120" width="170" height="30" as="geometry" />
        </mxCell>
        <mxCell id="1_8agOoDox8RABBiWh2T-3" value="description*: text" style="text;strokeColor=none;fillColor=none;align=left;verticalAlign=middle;spacingLeft=4;spacingRight=4;overflow=hidden;points=[[0,0.5],[1,0.5]];portConstraint=eastwest;rotatable=0;whiteSpace=wrap;html=1;" parent="C9TnxPf5Wy7Ffhwj_l1F-11" vertex="1">
          <mxGeometry y="150" width="170" height="30" as="geometry" />
        </mxCell>
        <mxCell id="1_8agOoDox8RABBiWh2T-4" value="icon*: string" style="text;strokeColor=none;fillColor=none;align=left;verticalAlign=middle;spacingLeft=4;spacingRight=4;overflow=hidden;points=[[0,0.5],[1,0.5]];portConstraint=eastwest;rotatable=0;whiteSpace=wrap;html=1;" parent="C9TnxPf5Wy7Ffhwj_l1F-11" vertex="1">
          <mxGeometry y="180" width="170" height="30" as="geometry" />
        </mxCell>
        <mxCell id="1_8agOoDox8RABBiWh2T-5" value="archived: bool" style="text;strokeColor=none;fillColor=none;align=left;verticalAlign=middle;spacingLeft=4;spacingRight=4;overflow=hidden;points=[[0,0.5],[1,0.5]];portConstraint=eastwest;rotatable=0;whiteSpace=wrap;html=1;" parent="C9TnxPf5Wy7Ffhwj_l1F-11" vertex="1">
          <mxGeometry y="210" width="170" height="30" as="geometry" />
        </mxCell>
        <mxCell id="C9TnxPf5Wy7Ffhwj_l1F-15" style="edgeStyle=orthogonalEdgeStyle;rounded=0;orthogonalLoop=1;jettySize=auto;html=1;entryX=0;entryY=0.5;entryDx=0;entryDy=0;dashed=1;" parent="1" source="C9TnxPf5Wy7Ffhwj_l1F-11" target="C9TnxPf5Wy7Ffhwj_l1F-2" edge="1">
          <mxGeometry relative="1" as="geometry" />
        </mxCell>
        <mxCell id="C9TnxPf5Wy7Ffhwj_l1F-16" value="0:n&lt;br&gt;Set Null" style="edgeLabel;html=1;align=center;verticalAlign=middle;resizable=0;points=[];" parent="C9TnxPf5Wy7Ffhwj_l1F-15" vertex="1" connectable="0">
          <mxGeometry x="-0.373" relative="1" as="geometry">
            <mxPoint as="offset" />
          </mxGeometry>
        </mxCell>
        <mxCell id="C9TnxPf5Wy7Ffhwj_l1F-17" style="edgeStyle=orthogonalEdgeStyle;rounded=0;orthogonalLoop=1;jettySize=auto;html=1;exitX=0.75;exitY=0;exitDx=0;exitDy=0;entryX=1;entryY=0.5;entryDx=0;entryDy=0;" parent="1" source="C9TnxPf5Wy7Ffhwj_l1F-21" target="C9TnxPf5Wy7Ffhwj_l1F-2" edge="1">
          <mxGeometry relative="1" as="geometry" />
        </mxCell>
        <mxCell id="C9TnxPf5Wy7Ffhwj_l1F-18" value="0:n&lt;br&gt;Set Null" style="edgeLabel;html=1;align=center;verticalAlign=middle;resizable=0;points=[];" parent="C9TnxPf5Wy7Ffhwj_l1F-17" vertex="1" connectable="0">
          <mxGeometry x="-0.2851" y="1" relative="1" as="geometry">
            <mxPoint as="offset" />
          </mxGeometry>
        </mxCell>
        <mxCell id="C9TnxPf5Wy7Ffhwj_l1F-19" style="edgeStyle=orthogonalEdgeStyle;rounded=0;orthogonalLoop=1;jettySize=auto;html=1;exitX=1;exitY=0.5;exitDx=0;exitDy=0;entryX=0;entryY=0.5;entryDx=0;entryDy=0;" parent="1" source="C9TnxPf5Wy7Ffhwj_l1F-23" target="C9TnxPf5Wy7Ffhwj_l1F-40" edge="1">
          <mxGeometry relative="1" as="geometry" />
        </mxCell>
        <mxCell id="C9TnxPf5Wy7Ffhwj_l1F-20" value="0:n&lt;br&gt;Set Null" style="edgeLabel;html=1;align=center;verticalAlign=middle;resizable=0;points=[];" parent="C9TnxPf5Wy7Ffhwj_l1F-19" vertex="1" connectable="0">
          <mxGeometry x="-0.2595" relative="1" as="geometry">
            <mxPoint x="7" as="offset" />
          </mxGeometry>
        </mxCell>
        <mxCell id="C9TnxPf5Wy7Ffhwj_l1F-21" value="user_entity_collaborations" style="swimlane;fontStyle=0;childLayout=stackLayout;horizontal=1;startSize=30;horizontalStack=0;resizeParent=1;resizeParentMax=0;resizeLast=0;collapsible=1;marginBottom=0;whiteSpace=wrap;html=1;fillColor=#e1d5e7;strokeColor=#9673a6;" parent="1" vertex="1">
          <mxGeometry x="940" y="730" width="170" height="270" as="geometry" />
        </mxCell>
        <mxCell id="C9TnxPf5Wy7Ffhwj_l1F-22" value="entity_id: FK" style="text;strokeColor=none;fillColor=none;align=left;verticalAlign=middle;spacingLeft=4;spacingRight=4;overflow=hidden;points=[[0,0.5],[1,0.5]];portConstraint=eastwest;rotatable=0;whiteSpace=wrap;html=1;" parent="C9TnxPf5Wy7Ffhwj_l1F-21" vertex="1">
          <mxGeometry y="30" width="170" height="30" as="geometry" />
        </mxCell>
        <mxCell id="C9TnxPf5Wy7Ffhwj_l1F-23" value="award_id: FK" style="text;strokeColor=none;fillColor=none;align=left;verticalAlign=middle;spacingLeft=4;spacingRight=4;overflow=hidden;points=[[0,0.5],[1,0.5]];portConstraint=eastwest;rotatable=0;whiteSpace=wrap;html=1;" parent="C9TnxPf5Wy7Ffhwj_l1F-21" vertex="1">
          <mxGeometry y="60" width="170" height="30" as="geometry" />
        </mxCell>
        <mxCell id="C9TnxPf5Wy7Ffhwj_l1F-24" value="departement_id: FK" style="text;strokeColor=none;fillColor=none;align=left;verticalAlign=middle;spacingLeft=4;spacingRight=4;overflow=hidden;points=[[0,0.5],[1,0.5]];portConstraint=eastwest;rotatable=0;whiteSpace=wrap;html=1;" parent="C9TnxPf5Wy7Ffhwj_l1F-21" vertex="1">
          <mxGeometry y="90" width="170" height="30" as="geometry" />
        </mxCell>
        <mxCell id="C9TnxPf5Wy7Ffhwj_l1F-26" value="access_limit: int (default, 1)" style="text;strokeColor=none;fillColor=none;align=left;verticalAlign=middle;spacingLeft=4;spacingRight=4;overflow=hidden;points=[[0,0.5],[1,0.5]];portConstraint=eastwest;rotatable=0;whiteSpace=wrap;html=1;" parent="C9TnxPf5Wy7Ffhwj_l1F-21" vertex="1">
          <mxGeometry y="120" width="170" height="30" as="geometry" />
        </mxCell>
        <mxCell id="C9TnxPf5Wy7Ffhwj_l1F-25" value="is_public: bool" style="text;strokeColor=none;fillColor=none;align=left;verticalAlign=middle;spacingLeft=4;spacingRight=4;overflow=hidden;points=[[0,0.5],[1,0.5]];portConstraint=eastwest;rotatable=0;whiteSpace=wrap;html=1;" parent="C9TnxPf5Wy7Ffhwj_l1F-21" vertex="1">
          <mxGeometry y="150" width="170" height="30" as="geometry" />
        </mxCell>
        <mxCell id="1_8agOoDox8RABBiWh2T-13" value="token: string" style="text;strokeColor=none;fillColor=none;align=left;verticalAlign=middle;spacingLeft=4;spacingRight=4;overflow=hidden;points=[[0,0.5],[1,0.5]];portConstraint=eastwest;rotatable=0;whiteSpace=wrap;html=1;" parent="C9TnxPf5Wy7Ffhwj_l1F-21" vertex="1">
          <mxGeometry y="180" width="170" height="30" as="geometry" />
        </mxCell>
        <mxCell id="1_8agOoDox8RABBiWh2T-12" value="archived: date (by entity)" style="text;strokeColor=none;fillColor=none;align=left;verticalAlign=middle;spacingLeft=4;spacingRight=4;overflow=hidden;points=[[0,0.5],[1,0.5]];portConstraint=eastwest;rotatable=0;whiteSpace=wrap;html=1;" parent="C9TnxPf5Wy7Ffhwj_l1F-21" vertex="1">
          <mxGeometry y="210" width="170" height="30" as="geometry" />
        </mxCell>
        <mxCell id="1_8agOoDox8RABBiWh2T-7" value="Meta" style="text;strokeColor=none;fillColor=none;align=left;verticalAlign=middle;spacingLeft=4;spacingRight=4;overflow=hidden;points=[[0,0.5],[1,0.5]];portConstraint=eastwest;rotatable=0;whiteSpace=wrap;html=1;" parent="C9TnxPf5Wy7Ffhwj_l1F-21" vertex="1">
          <mxGeometry y="240" width="170" height="30" as="geometry" />
        </mxCell>
        <mxCell id="C9TnxPf5Wy7Ffhwj_l1F-27" style="edgeStyle=orthogonalEdgeStyle;rounded=0;orthogonalLoop=1;jettySize=auto;html=1;exitX=0.25;exitY=0;exitDx=0;exitDy=0;" parent="1" source="C9TnxPf5Wy7Ffhwj_l1F-21" edge="1">
          <mxGeometry relative="1" as="geometry">
            <mxPoint x="775" y="630" as="targetPoint" />
          </mxGeometry>
        </mxCell>
        <mxCell id="C9TnxPf5Wy7Ffhwj_l1F-28" value="0:n&lt;br&gt;Set Null" style="edgeLabel;html=1;align=center;verticalAlign=middle;resizable=0;points=[];" parent="C9TnxPf5Wy7Ffhwj_l1F-27" vertex="1" connectable="0">
          <mxGeometry x="0.0877" y="-2" relative="1" as="geometry">
            <mxPoint as="offset" />
          </mxGeometry>
        </mxCell>
        <mxCell id="C9TnxPf5Wy7Ffhwj_l1F-29" value="app_skills" style="swimlane;fontStyle=0;childLayout=stackLayout;horizontal=1;startSize=30;horizontalStack=0;resizeParent=1;resizeParentMax=0;resizeLast=0;collapsible=1;marginBottom=0;whiteSpace=wrap;html=1;fillColor=#f5f5f5;fontColor=#333333;strokeColor=#666666;" parent="1" vertex="1">
          <mxGeometry x="1280" y="860" width="140" height="60" as="geometry" />
        </mxCell>
        <mxCell id="C9TnxPf5Wy7Ffhwj_l1F-30" value="Data" style="text;strokeColor=none;fillColor=none;align=left;verticalAlign=middle;spacingLeft=4;spacingRight=4;overflow=hidden;points=[[0,0.5],[1,0.5]];portConstraint=eastwest;rotatable=0;whiteSpace=wrap;html=1;" parent="C9TnxPf5Wy7Ffhwj_l1F-29" vertex="1">
          <mxGeometry y="30" width="140" height="30" as="geometry" />
        </mxCell>
        <mxCell id="C9TnxPf5Wy7Ffhwj_l1F-33" value="pivot_collaboration_skills" style="swimlane;fontStyle=0;childLayout=stackLayout;horizontal=1;startSize=30;horizontalStack=0;resizeParent=1;resizeParentMax=0;resizeLast=0;collapsible=1;marginBottom=0;whiteSpace=wrap;html=1;" parent="1" vertex="1">
          <mxGeometry x="1210" y="1040" width="140" height="120" as="geometry" />
        </mxCell>
        <mxCell id="C9TnxPf5Wy7Ffhwj_l1F-34" value="collaboration_id*: FK" style="text;strokeColor=none;fillColor=none;align=left;verticalAlign=middle;spacingLeft=4;spacingRight=4;overflow=hidden;points=[[0,0.5],[1,0.5]];portConstraint=eastwest;rotatable=0;whiteSpace=wrap;html=1;" parent="C9TnxPf5Wy7Ffhwj_l1F-33" vertex="1">
          <mxGeometry y="30" width="140" height="30" as="geometry" />
        </mxCell>
        <mxCell id="C9TnxPf5Wy7Ffhwj_l1F-35" value="skill_id*: FK" style="text;strokeColor=none;fillColor=none;align=left;verticalAlign=middle;spacingLeft=4;spacingRight=4;overflow=hidden;points=[[0,0.5],[1,0.5]];portConstraint=eastwest;rotatable=0;whiteSpace=wrap;html=1;" parent="C9TnxPf5Wy7Ffhwj_l1F-33" vertex="1">
          <mxGeometry y="60" width="140" height="30" as="geometry" />
        </mxCell>
        <mxCell id="C9TnxPf5Wy7Ffhwj_l1F-36" value="description: text" style="text;strokeColor=none;fillColor=none;align=left;verticalAlign=middle;spacingLeft=4;spacingRight=4;overflow=hidden;points=[[0,0.5],[1,0.5]];portConstraint=eastwest;rotatable=0;whiteSpace=wrap;html=1;" parent="C9TnxPf5Wy7Ffhwj_l1F-33" vertex="1">
          <mxGeometry y="90" width="140" height="30" as="geometry" />
        </mxCell>
        <mxCell id="C9TnxPf5Wy7Ffhwj_l1F-37" style="edgeStyle=orthogonalEdgeStyle;rounded=0;orthogonalLoop=1;jettySize=auto;html=1;entryX=1;entryY=0.5;entryDx=0;entryDy=0;exitX=0.25;exitY=0;exitDx=0;exitDy=0;" parent="1" source="C9TnxPf5Wy7Ffhwj_l1F-33" target="1_8agOoDox8RABBiWh2T-13" edge="1">
          <mxGeometry relative="1" as="geometry">
            <mxPoint x="1060" y="940" as="targetPoint" />
          </mxGeometry>
        </mxCell>
        <mxCell id="1_8agOoDox8RABBiWh2T-8" value="0:n&lt;br&gt;Delete" style="edgeLabel;html=1;align=center;verticalAlign=middle;resizable=0;points=[];" parent="C9TnxPf5Wy7Ffhwj_l1F-37" vertex="1" connectable="0">
          <mxGeometry x="0.3579" y="-1" relative="1" as="geometry">
            <mxPoint x="-2" y="-7" as="offset" />
          </mxGeometry>
        </mxCell>
        <mxCell id="C9TnxPf5Wy7Ffhwj_l1F-38" style="edgeStyle=orthogonalEdgeStyle;rounded=0;orthogonalLoop=1;jettySize=auto;html=1;entryX=0.5;entryY=0.972;entryDx=0;entryDy=0;entryPerimeter=0;exitX=0.75;exitY=0;exitDx=0;exitDy=0;" parent="1" source="C9TnxPf5Wy7Ffhwj_l1F-33" target="C9TnxPf5Wy7Ffhwj_l1F-30" edge="1">
          <mxGeometry relative="1" as="geometry">
            <mxPoint x="1390.6999999999998" y="719.3399999999999" as="targetPoint" />
          </mxGeometry>
        </mxCell>
        <mxCell id="1_8agOoDox8RABBiWh2T-9" value="0:n&lt;br&gt;Delete" style="edgeLabel;html=1;align=center;verticalAlign=middle;resizable=0;points=[];" parent="C9TnxPf5Wy7Ffhwj_l1F-38" vertex="1" connectable="0">
          <mxGeometry x="0.2312" relative="1" as="geometry">
            <mxPoint as="offset" />
          </mxGeometry>
        </mxCell>
        <mxCell id="C9TnxPf5Wy7Ffhwj_l1F-39" value="app_departements" style="swimlane;fontStyle=0;childLayout=stackLayout;horizontal=1;startSize=30;horizontalStack=0;resizeParent=1;resizeParentMax=0;resizeLast=0;collapsible=1;marginBottom=0;whiteSpace=wrap;html=1;fillColor=#f5f5f5;fontColor=#333333;strokeColor=#666666;" parent="1" vertex="1">
          <mxGeometry x="1280" y="760" width="140" height="60" as="geometry" />
        </mxCell>
        <mxCell id="C9TnxPf5Wy7Ffhwj_l1F-40" value="Data" style="text;strokeColor=none;fillColor=none;align=left;verticalAlign=middle;spacingLeft=4;spacingRight=4;overflow=hidden;points=[[0,0.5],[1,0.5]];portConstraint=eastwest;rotatable=0;whiteSpace=wrap;html=1;" parent="C9TnxPf5Wy7Ffhwj_l1F-39" vertex="1">
          <mxGeometry y="30" width="140" height="30" as="geometry" />
        </mxCell>
        <mxCell id="C9TnxPf5Wy7Ffhwj_l1F-43" style="edgeStyle=orthogonalEdgeStyle;rounded=0;orthogonalLoop=1;jettySize=auto;html=1;exitX=0.75;exitY=0;exitDx=0;exitDy=0;entryX=0;entryY=0.5;entryDx=0;entryDy=0;" parent="1" source="C9TnxPf5Wy7Ffhwj_l1F-45" target="C9TnxPf5Wy7Ffhwj_l1F-23" edge="1">
          <mxGeometry relative="1" as="geometry" />
        </mxCell>
        <mxCell id="1_8agOoDox8RABBiWh2T-10" value="0:n&lt;br&gt;Restrict" style="edgeLabel;html=1;align=center;verticalAlign=middle;resizable=0;points=[];" parent="C9TnxPf5Wy7Ffhwj_l1F-43" vertex="1" connectable="0">
          <mxGeometry x="-0.4201" relative="1" as="geometry">
            <mxPoint y="6" as="offset" />
          </mxGeometry>
        </mxCell>
        <mxCell id="1_8agOoDox8RABBiWh2T-17" style="edgeStyle=orthogonalEdgeStyle;rounded=0;orthogonalLoop=1;jettySize=auto;html=1;entryX=0;entryY=0.5;entryDx=0;entryDy=0;" parent="1" source="C9TnxPf5Wy7Ffhwj_l1F-45" target="C9TnxPf5Wy7Ffhwj_l1F-2" edge="1">
          <mxGeometry relative="1" as="geometry" />
        </mxCell>
        <mxCell id="1_8agOoDox8RABBiWh2T-20" value="0:n&lt;br&gt;Set Null" style="edgeLabel;html=1;align=center;verticalAlign=middle;resizable=0;points=[];" parent="1_8agOoDox8RABBiWh2T-17" vertex="1" connectable="0">
          <mxGeometry x="-0.7187" y="1" relative="1" as="geometry">
            <mxPoint as="offset" />
          </mxGeometry>
        </mxCell>
        <mxCell id="1_8agOoDox8RABBiWh2T-18" style="edgeStyle=orthogonalEdgeStyle;rounded=0;orthogonalLoop=1;jettySize=auto;html=1;exitX=0.25;exitY=0;exitDx=0;exitDy=0;entryX=0;entryY=0.5;entryDx=0;entryDy=0;" parent="1" source="C9TnxPf5Wy7Ffhwj_l1F-45" target="C9TnxPf5Wy7Ffhwj_l1F-8" edge="1">
          <mxGeometry relative="1" as="geometry" />
        </mxCell>
        <mxCell id="1_8agOoDox8RABBiWh2T-19" value="0:n&lt;br&gt;Cascade" style="edgeLabel;html=1;align=center;verticalAlign=middle;resizable=0;points=[];" parent="1_8agOoDox8RABBiWh2T-18" vertex="1" connectable="0">
          <mxGeometry x="-0.7727" y="1" relative="1" as="geometry">
            <mxPoint x="1" as="offset" />
          </mxGeometry>
        </mxCell>
        <mxCell id="C9TnxPf5Wy7Ffhwj_l1F-45" value="collaborators" style="swimlane;fontStyle=0;childLayout=stackLayout;horizontal=1;startSize=30;horizontalStack=0;resizeParent=1;resizeParentMax=0;resizeLast=0;collapsible=1;marginBottom=0;whiteSpace=wrap;html=1;fillColor=#dae8fc;strokeColor=#6c8ebf;" parent="1" vertex="1">
          <mxGeometry x="520" y="1059" width="230" height="390" as="geometry" />
        </mxCell>
        <mxCell id="C9TnxPf5Wy7Ffhwj_l1F-46" value="user_id*: FK" style="text;strokeColor=none;fillColor=none;align=left;verticalAlign=middle;spacingLeft=4;spacingRight=4;overflow=hidden;points=[[0,0.5],[1,0.5]];portConstraint=eastwest;rotatable=0;whiteSpace=wrap;html=1;" parent="C9TnxPf5Wy7Ffhwj_l1F-45" vertex="1">
          <mxGeometry y="30" width="230" height="30" as="geometry" />
        </mxCell>
        <mxCell id="C9TnxPf5Wy7Ffhwj_l1F-47" value="collaboration_id*: FK" style="text;strokeColor=none;fillColor=none;align=left;verticalAlign=middle;spacingLeft=4;spacingRight=4;overflow=hidden;points=[[0,0.5],[1,0.5]];portConstraint=eastwest;rotatable=0;whiteSpace=wrap;html=1;" parent="C9TnxPf5Wy7Ffhwj_l1F-45" vertex="1">
          <mxGeometry y="60" width="230" height="30" as="geometry" />
        </mxCell>
        <mxCell id="C9TnxPf5Wy7Ffhwj_l1F-48" value="enitity_id: FK" style="text;strokeColor=none;fillColor=none;align=left;verticalAlign=middle;spacingLeft=4;spacingRight=4;overflow=hidden;points=[[0,0.5],[1,0.5]];portConstraint=eastwest;rotatable=0;whiteSpace=wrap;html=1;" parent="C9TnxPf5Wy7Ffhwj_l1F-45" vertex="1">
          <mxGeometry y="90" width="230" height="30" as="geometry" />
        </mxCell>
        <mxCell id="C9TnxPf5Wy7Ffhwj_l1F-50" value="date_requested: date (by user)" style="text;strokeColor=none;fillColor=none;align=left;verticalAlign=middle;spacingLeft=4;spacingRight=4;overflow=hidden;points=[[0,0.5],[1,0.5]];portConstraint=eastwest;rotatable=0;whiteSpace=wrap;html=1;" parent="C9TnxPf5Wy7Ffhwj_l1F-45" vertex="1">
          <mxGeometry y="120" width="230" height="30" as="geometry" />
        </mxCell>
        <mxCell id="C9TnxPf5Wy7Ffhwj_l1F-49" value="date_released: date (by entity)" style="text;strokeColor=none;fillColor=none;align=left;verticalAlign=middle;spacingLeft=4;spacingRight=4;overflow=hidden;points=[[0,0.5],[1,0.5]];portConstraint=eastwest;rotatable=0;whiteSpace=wrap;html=1;" parent="C9TnxPf5Wy7Ffhwj_l1F-45" vertex="1">
          <mxGeometry y="150" width="230" height="30" as="geometry" />
        </mxCell>
        <mxCell id="C9TnxPf5Wy7Ffhwj_l1F-51" value="date_issued: date (by entity)" style="text;strokeColor=none;fillColor=none;align=left;verticalAlign=middle;spacingLeft=4;spacingRight=4;overflow=hidden;points=[[0,0.5],[1,0.5]];portConstraint=eastwest;rotatable=0;whiteSpace=wrap;html=1;" parent="C9TnxPf5Wy7Ffhwj_l1F-45" vertex="1">
          <mxGeometry y="180" width="230" height="30" as="geometry" />
        </mxCell>
        <mxCell id="C9TnxPf5Wy7Ffhwj_l1F-52" value="date_confirmed: date (by user)" style="text;strokeColor=none;fillColor=none;align=left;verticalAlign=middle;spacingLeft=4;spacingRight=4;overflow=hidden;points=[[0,0.5],[1,0.5]];portConstraint=eastwest;rotatable=0;whiteSpace=wrap;html=1;" parent="C9TnxPf5Wy7Ffhwj_l1F-45" vertex="1">
          <mxGeometry y="210" width="230" height="30" as="geometry" />
        </mxCell>
        <mxCell id="1_8agOoDox8RABBiWh2T-14" value="period_start: date (by user)" style="text;strokeColor=none;fillColor=none;align=left;verticalAlign=middle;spacingLeft=4;spacingRight=4;overflow=hidden;points=[[0,0.5],[1,0.5]];portConstraint=eastwest;rotatable=0;whiteSpace=wrap;html=1;" parent="C9TnxPf5Wy7Ffhwj_l1F-45" vertex="1">
          <mxGeometry y="240" width="230" height="30" as="geometry" />
        </mxCell>
        <mxCell id="1_8agOoDox8RABBiWh2T-16" value="period_duration: string (by user)" style="text;strokeColor=none;fillColor=none;align=left;verticalAlign=middle;spacingLeft=4;spacingRight=4;overflow=hidden;points=[[0,0.5],[1,0.5]];portConstraint=eastwest;rotatable=0;whiteSpace=wrap;html=1;" parent="C9TnxPf5Wy7Ffhwj_l1F-45" vertex="1">
          <mxGeometry y="270" width="230" height="30" as="geometry" />
        </mxCell>
        <mxCell id="1_8agOoDox8RABBiWh2T-22" value="is_public: bool (by user)" style="text;strokeColor=none;fillColor=none;align=left;verticalAlign=middle;spacingLeft=4;spacingRight=4;overflow=hidden;points=[[0,0.5],[1,0.5]];portConstraint=eastwest;rotatable=0;whiteSpace=wrap;html=1;" parent="C9TnxPf5Wy7Ffhwj_l1F-45" vertex="1">
          <mxGeometry y="300" width="230" height="30" as="geometry" />
        </mxCell>
        <mxCell id="1_8agOoDox8RABBiWh2T-21" value="token: string" style="text;strokeColor=none;fillColor=none;align=left;verticalAlign=middle;spacingLeft=4;spacingRight=4;overflow=hidden;points=[[0,0.5],[1,0.5]];portConstraint=eastwest;rotatable=0;whiteSpace=wrap;html=1;" parent="C9TnxPf5Wy7Ffhwj_l1F-45" vertex="1">
          <mxGeometry y="330" width="230" height="30" as="geometry" />
        </mxCell>
        <mxCell id="C9TnxPf5Wy7Ffhwj_l1F-53" value="archived: date (not defined yet)" style="text;strokeColor=none;fillColor=none;align=left;verticalAlign=middle;spacingLeft=4;spacingRight=4;overflow=hidden;points=[[0,0.5],[1,0.5]];portConstraint=eastwest;rotatable=0;whiteSpace=wrap;html=1;" parent="C9TnxPf5Wy7Ffhwj_l1F-45" vertex="1">
          <mxGeometry y="360" width="230" height="30" as="geometry" />
        </mxCell>
        <mxCell id="1_8agOoDox8RABBiWh2T-15" value="Flags" style="ellipse;shape=cloud;whiteSpace=wrap;html=1;fillColor=#f5f5f5;fontColor=#333333;strokeColor=#666666;" parent="1" vertex="1">
          <mxGeometry x="705" y="1000" width="120" height="80" as="geometry" />
        </mxCell>
        <mxCell id="1_8agOoDox8RABBiWh2T-23" value="Flags" style="ellipse;shape=cloud;whiteSpace=wrap;html=1;fillColor=#f5f5f5;fontColor=#333333;strokeColor=#666666;" parent="1" vertex="1">
          <mxGeometry x="1080" y="680" width="120" height="80" as="geometry" />
        </mxCell>
        <mxCell id="1_8agOoDox8RABBiWh2T-25" value="collaboration_participation" style="swimlane;fontStyle=0;childLayout=stackLayout;horizontal=1;startSize=30;horizontalStack=0;resizeParent=1;resizeParentMax=0;resizeLast=0;collapsible=1;marginBottom=0;whiteSpace=wrap;html=1;" parent="1" vertex="1">
          <mxGeometry x="1050" y="1210" width="160" height="180" as="geometry" />
        </mxCell>
        <mxCell id="1_8agOoDox8RABBiWh2T-26" value="collaboration_id*: FK" style="text;strokeColor=none;fillColor=none;align=left;verticalAlign=middle;spacingLeft=4;spacingRight=4;overflow=hidden;points=[[0,0.5],[1,0.5]];portConstraint=eastwest;rotatable=0;whiteSpace=wrap;html=1;" parent="1_8agOoDox8RABBiWh2T-25" vertex="1">
          <mxGeometry y="30" width="160" height="30" as="geometry" />
        </mxCell>
        <mxCell id="1_8agOoDox8RABBiWh2T-28" value="date_start*: datetime" style="text;strokeColor=none;fillColor=none;align=left;verticalAlign=middle;spacingLeft=4;spacingRight=4;overflow=hidden;points=[[0,0.5],[1,0.5]];portConstraint=eastwest;rotatable=0;whiteSpace=wrap;html=1;" parent="1_8agOoDox8RABBiWh2T-25" vertex="1">
          <mxGeometry y="60" width="160" height="30" as="geometry" />
        </mxCell>
        <mxCell id="1_8agOoDox8RABBiWh2T-32" value="duration*: string" style="text;strokeColor=none;fillColor=none;align=left;verticalAlign=middle;spacingLeft=4;spacingRight=4;overflow=hidden;points=[[0,0.5],[1,0.5]];portConstraint=eastwest;rotatable=0;whiteSpace=wrap;html=1;" parent="1_8agOoDox8RABBiWh2T-25" vertex="1">
          <mxGeometry y="90" width="160" height="30" as="geometry" />
        </mxCell>
        <mxCell id="1_8agOoDox8RABBiWh2T-33" value="limit: int" style="text;strokeColor=none;fillColor=none;align=left;verticalAlign=middle;spacingLeft=4;spacingRight=4;overflow=hidden;points=[[0,0.5],[1,0.5]];portConstraint=eastwest;rotatable=0;whiteSpace=wrap;html=1;" parent="1_8agOoDox8RABBiWh2T-25" vertex="1">
          <mxGeometry y="120" width="160" height="30" as="geometry" />
        </mxCell>
        <mxCell id="1_8agOoDox8RABBiWh2T-34" value="geolocation_id: FK" style="text;strokeColor=none;fillColor=none;align=left;verticalAlign=middle;spacingLeft=4;spacingRight=4;overflow=hidden;points=[[0,0.5],[1,0.5]];portConstraint=eastwest;rotatable=0;whiteSpace=wrap;html=1;" parent="1_8agOoDox8RABBiWh2T-25" vertex="1">
          <mxGeometry y="150" width="160" height="30" as="geometry" />
        </mxCell>
        <mxCell id="1_8agOoDox8RABBiWh2T-29" value="collaboration_doks" style="swimlane;fontStyle=0;childLayout=stackLayout;horizontal=1;startSize=30;horizontalStack=0;resizeParent=1;resizeParentMax=0;resizeLast=0;collapsible=1;marginBottom=0;whiteSpace=wrap;html=1;" parent="1" vertex="1">
          <mxGeometry x="820" y="1210" width="160" height="120" as="geometry" />
        </mxCell>
        <mxCell id="1_8agOoDox8RABBiWh2T-30" value="collaboration_id*: FK" style="text;strokeColor=none;fillColor=none;align=left;verticalAlign=middle;spacingLeft=4;spacingRight=4;overflow=hidden;points=[[0,0.5],[1,0.5]];portConstraint=eastwest;rotatable=0;whiteSpace=wrap;html=1;" parent="1_8agOoDox8RABBiWh2T-29" vertex="1">
          <mxGeometry y="30" width="160" height="30" as="geometry" />
        </mxCell>
        <mxCell id="1_8agOoDox8RABBiWh2T-31" value="title*: String" style="text;strokeColor=none;fillColor=none;align=left;verticalAlign=middle;spacingLeft=4;spacingRight=4;overflow=hidden;points=[[0,0.5],[1,0.5]];portConstraint=eastwest;rotatable=0;whiteSpace=wrap;html=1;" parent="1_8agOoDox8RABBiWh2T-29" vertex="1">
          <mxGeometry y="60" width="160" height="30" as="geometry" />
        </mxCell>
        <mxCell id="1_8agOoDox8RABBiWh2T-44" value="src*: String" style="text;strokeColor=none;fillColor=none;align=left;verticalAlign=middle;spacingLeft=4;spacingRight=4;overflow=hidden;points=[[0,0.5],[1,0.5]];portConstraint=eastwest;rotatable=0;whiteSpace=wrap;html=1;" parent="1_8agOoDox8RABBiWh2T-29" vertex="1">
          <mxGeometry y="90" width="160" height="30" as="geometry" />
        </mxCell>
        <mxCell id="1_8agOoDox8RABBiWh2T-35" value="app_geolocations" style="swimlane;fontStyle=0;childLayout=stackLayout;horizontal=1;startSize=30;horizontalStack=0;resizeParent=1;resizeParentMax=0;resizeLast=0;collapsible=1;marginBottom=0;whiteSpace=wrap;html=1;fillColor=#f5f5f5;strokeColor=#666666;fontColor=#333333;" parent="1" vertex="1">
          <mxGeometry x="1370" y="1240" width="140" height="60" as="geometry" />
        </mxCell>
        <mxCell id="1_8agOoDox8RABBiWh2T-36" value="Data" style="text;strokeColor=none;fillColor=none;align=left;verticalAlign=middle;spacingLeft=4;spacingRight=4;overflow=hidden;points=[[0,0.5],[1,0.5]];portConstraint=eastwest;rotatable=0;whiteSpace=wrap;html=1;" parent="1_8agOoDox8RABBiWh2T-35" vertex="1">
          <mxGeometry y="30" width="140" height="30" as="geometry" />
        </mxCell>
        <mxCell id="1_8agOoDox8RABBiWh2T-39" style="edgeStyle=orthogonalEdgeStyle;rounded=0;orthogonalLoop=1;jettySize=auto;html=1;exitX=1;exitY=0.5;exitDx=0;exitDy=0;entryX=0;entryY=0.5;entryDx=0;entryDy=0;" parent="1" source="1_8agOoDox8RABBiWh2T-28" target="1_8agOoDox8RABBiWh2T-36" edge="1">
          <mxGeometry relative="1" as="geometry" />
        </mxCell>
        <mxCell id="1_8agOoDox8RABBiWh2T-40" value="0:n&lt;br&gt;Set Null" style="edgeLabel;html=1;align=center;verticalAlign=middle;resizable=0;points=[];" parent="1_8agOoDox8RABBiWh2T-39" vertex="1" connectable="0">
          <mxGeometry x="-0.0208" y="1" relative="1" as="geometry">
            <mxPoint as="offset" />
          </mxGeometry>
        </mxCell>
        <mxCell id="1_8agOoDox8RABBiWh2T-41" style="edgeStyle=orthogonalEdgeStyle;rounded=0;orthogonalLoop=1;jettySize=auto;html=1;entryX=0.77;entryY=0.972;entryDx=0;entryDy=0;entryPerimeter=0;" parent="1" source="1_8agOoDox8RABBiWh2T-25" target="1_8agOoDox8RABBiWh2T-7" edge="1">
          <mxGeometry relative="1" as="geometry" />
        </mxCell>
        <mxCell id="1_8agOoDox8RABBiWh2T-42" value="0:n&lt;br&gt;Cascade" style="edgeLabel;html=1;align=center;verticalAlign=middle;resizable=0;points=[];" parent="1_8agOoDox8RABBiWh2T-41" vertex="1" connectable="0">
          <mxGeometry x="-0.6542" relative="1" as="geometry">
            <mxPoint as="offset" />
          </mxGeometry>
        </mxCell>
        <mxCell id="1_8agOoDox8RABBiWh2T-43" style="edgeStyle=orthogonalEdgeStyle;rounded=0;orthogonalLoop=1;jettySize=auto;html=1;entryX=0.098;entryY=1.028;entryDx=0;entryDy=0;entryPerimeter=0;" parent="1" source="1_8agOoDox8RABBiWh2T-29" target="1_8agOoDox8RABBiWh2T-7" edge="1">
          <mxGeometry relative="1" as="geometry" />
        </mxCell>
        <mxCell id="1_8agOoDox8RABBiWh2T-45" value="0:n&lt;br&gt;Cascade" style="edgeLabel;html=1;align=center;verticalAlign=middle;resizable=0;points=[];" parent="1_8agOoDox8RABBiWh2T-43" vertex="1" connectable="0">
          <mxGeometry x="-0.6148" relative="1" as="geometry">
            <mxPoint as="offset" />
          </mxGeometry>
        </mxCell>
        <mxCell id="1_8agOoDox8RABBiWh2T-46" value="Delete:&lt;br&gt;Remove&lt;br&gt;Files" style="ellipse;shape=cloud;whiteSpace=wrap;html=1;fillColor=#f5f5f5;strokeColor=#666666;fontColor=#333333;" parent="1" vertex="1">
          <mxGeometry x="760" y="1140" width="120" height="80" as="geometry" />
        </mxCell>
        <mxCell id="1_8agOoDox8RABBiWh2T-47" value="collaboration_reviews" style="swimlane;fontStyle=0;childLayout=stackLayout;horizontal=1;startSize=30;horizontalStack=0;resizeParent=1;resizeParentMax=0;resizeLast=0;collapsible=1;marginBottom=0;whiteSpace=wrap;html=1;" parent="1" vertex="1">
          <mxGeometry x="930" y="1440" width="160" height="60" as="geometry" />
        </mxCell>
        <mxCell id="1_8agOoDox8RABBiWh2T-48" value="collaboration_id*: FK" style="text;strokeColor=none;fillColor=none;align=left;verticalAlign=middle;spacingLeft=4;spacingRight=4;overflow=hidden;points=[[0,0.5],[1,0.5]];portConstraint=eastwest;rotatable=0;whiteSpace=wrap;html=1;" parent="1_8agOoDox8RABBiWh2T-47" vertex="1">
          <mxGeometry y="30" width="160" height="30" as="geometry" />
        </mxCell>
        <mxCell id="1_8agOoDox8RABBiWh2T-51" style="edgeStyle=orthogonalEdgeStyle;rounded=0;orthogonalLoop=1;jettySize=auto;html=1;exitX=0.5;exitY=0;exitDx=0;exitDy=0;entryX=0.417;entryY=1.028;entryDx=0;entryDy=0;entryPerimeter=0;" parent="1" source="1_8agOoDox8RABBiWh2T-47" target="1_8agOoDox8RABBiWh2T-7" edge="1">
          <mxGeometry relative="1" as="geometry" />
        </mxCell>
        <mxCell id="1_8agOoDox8RABBiWh2T-52" value="0:n&lt;br&gt;Cascade" style="edgeLabel;html=1;align=center;verticalAlign=middle;resizable=0;points=[];" parent="1_8agOoDox8RABBiWh2T-51" vertex="1" connectable="0">
          <mxGeometry x="-0.7349" relative="1" as="geometry">
            <mxPoint y="8" as="offset" />
          </mxGeometry>
        </mxCell>
        <mxCell id="tNWOOKgxBSz7S5JpGmTx-1" value="contact: text" style="text;strokeColor=none;fillColor=none;align=left;verticalAlign=middle;spacingLeft=4;spacingRight=4;overflow=hidden;points=[[0,0.5],[1,0.5]];portConstraint=eastwest;rotatable=0;whiteSpace=wrap;html=1;" parent="1" vertex="1">
          <mxGeometry x="220" y="1209" width="230" height="30" as="geometry" />
        </mxCell>
      </root>
    </mxGraphModel>
  </diagram>
  <diagram id="sfwPjxq-yAZzBOWqVrkf" name="FTR 1: Collaborations">
    <mxGraphModel dx="3033" dy="2507" grid="1" gridSize="10" guides="1" tooltips="1" connect="1" arrows="1" fold="1" page="1" pageScale="1" pageWidth="827" pageHeight="1169" math="0" shadow="0">
      <root>
        <mxCell id="0" />
        <mxCell id="1" parent="0" />
        <mxCell id="9xqgChsdiNvlC2c3Y_gE-5" value="owner" style="swimlane;startSize=20;horizontal=0;html=1;whiteSpace=wrap;" parent="1" vertex="1">
          <mxGeometry x="110" y="-100" width="3560" height="180" as="geometry" />
        </mxCell>
        <mxCell id="9xqgChsdiNvlC2c3Y_gE-7" value="" style="points=[[0.145,0.145,0],[0.5,0,0],[0.855,0.145,0],[1,0.5,0],[0.855,0.855,0],[0.5,1,0],[0.145,0.855,0],[0,0.5,0]];shape=mxgraph.bpmn.event;html=1;verticalLabelPosition=bottom;labelBackgroundColor=#ffffff;verticalAlign=top;align=center;perimeter=ellipsePerimeter;outlineConnect=0;aspect=fixed;outline=standard;symbol=general;" parent="9xqgChsdiNvlC2c3Y_gE-5" vertex="1">
          <mxGeometry x="80" y="70" width="50" height="50" as="geometry" />
        </mxCell>
        <mxCell id="9xqgChsdiNvlC2c3Y_gE-8" value="Create &lt;br&gt;Collaboration" style="points=[[0.25,0,0],[0.5,0,0],[0.75,0,0],[1,0.25,0],[1,0.5,0],[1,0.75,0],[0.75,1,0],[0.5,1,0],[0.25,1,0],[0,0.75,0],[0,0.5,0],[0,0.25,0]];shape=mxgraph.bpmn.task;whiteSpace=wrap;rectStyle=rounded;size=10;html=1;container=1;expand=0;collapsible=0;taskMarker=abstract;" parent="9xqgChsdiNvlC2c3Y_gE-5" vertex="1">
          <mxGeometry x="200" y="55" width="120" height="80" as="geometry" />
        </mxCell>
        <mxCell id="9xqgChsdiNvlC2c3Y_gE-9" value="" style="points=[[0.145,0.145,0],[0.5,0,0],[0.855,0.145,0],[1,0.5,0],[0.855,0.855,0],[0.5,1,0],[0.145,0.855,0],[0,0.5,0]];shape=mxgraph.bpmn.event;html=1;verticalLabelPosition=bottom;labelBackgroundColor=#ffffff;verticalAlign=top;align=center;perimeter=ellipsePerimeter;outlineConnect=0;aspect=fixed;outline=end;symbol=terminate2;" parent="9xqgChsdiNvlC2c3Y_gE-5" vertex="1">
          <mxGeometry x="380" y="70" width="50" height="50" as="geometry" />
        </mxCell>
        <mxCell id="9xqgChsdiNvlC2c3Y_gE-10" style="edgeStyle=orthogonalEdgeStyle;rounded=0;orthogonalLoop=1;jettySize=auto;html=1;entryX=0;entryY=0.5;entryDx=0;entryDy=0;entryPerimeter=0;" parent="9xqgChsdiNvlC2c3Y_gE-5" source="9xqgChsdiNvlC2c3Y_gE-8" target="9xqgChsdiNvlC2c3Y_gE-9" edge="1">
          <mxGeometry relative="1" as="geometry" />
        </mxCell>
        <mxCell id="9xqgChsdiNvlC2c3Y_gE-11" style="edgeStyle=orthogonalEdgeStyle;rounded=0;orthogonalLoop=1;jettySize=auto;html=1;entryX=0;entryY=0.5;entryDx=0;entryDy=0;entryPerimeter=0;" parent="9xqgChsdiNvlC2c3Y_gE-5" source="9xqgChsdiNvlC2c3Y_gE-7" target="9xqgChsdiNvlC2c3Y_gE-8" edge="1">
          <mxGeometry relative="1" as="geometry" />
        </mxCell>
        <mxCell id="Pm_gBeIu3a7H0LE_9hBZ-2" value="" style="points=[[0.145,0.145,0],[0.5,0,0],[0.855,0.145,0],[1,0.5,0],[0.855,0.855,0],[0.5,1,0],[0.145,0.855,0],[0,0.5,0]];shape=mxgraph.bpmn.event;html=1;verticalLabelPosition=bottom;labelBackgroundColor=#ffffff;verticalAlign=top;align=center;perimeter=ellipsePerimeter;outlineConnect=0;aspect=fixed;outline=standard;symbol=general;" parent="9xqgChsdiNvlC2c3Y_gE-5" vertex="1">
          <mxGeometry x="530" y="70" width="50" height="50" as="geometry" />
        </mxCell>
        <mxCell id="Pm_gBeIu3a7H0LE_9hBZ-3" value="Update&lt;br&gt;Collaboration" style="points=[[0.25,0,0],[0.5,0,0],[0.75,0,0],[1,0.25,0],[1,0.5,0],[1,0.75,0],[0.75,1,0],[0.5,1,0],[0.25,1,0],[0,0.75,0],[0,0.5,0],[0,0.25,0]];shape=mxgraph.bpmn.task;whiteSpace=wrap;rectStyle=rounded;size=10;html=1;container=1;expand=0;collapsible=0;taskMarker=abstract;" parent="9xqgChsdiNvlC2c3Y_gE-5" vertex="1">
          <mxGeometry x="650" y="55" width="120" height="80" as="geometry" />
        </mxCell>
        <mxCell id="Pm_gBeIu3a7H0LE_9hBZ-4" style="edgeStyle=orthogonalEdgeStyle;rounded=0;orthogonalLoop=1;jettySize=auto;html=1;entryX=0;entryY=0.5;entryDx=0;entryDy=0;entryPerimeter=0;" parent="9xqgChsdiNvlC2c3Y_gE-5" source="Pm_gBeIu3a7H0LE_9hBZ-2" target="Pm_gBeIu3a7H0LE_9hBZ-3" edge="1">
          <mxGeometry relative="1" as="geometry" />
        </mxCell>
        <mxCell id="Pm_gBeIu3a7H0LE_9hBZ-5" value="" style="points=[[0.145,0.145,0],[0.5,0,0],[0.855,0.145,0],[1,0.5,0],[0.855,0.855,0],[0.5,1,0],[0.145,0.855,0],[0,0.5,0]];shape=mxgraph.bpmn.event;html=1;verticalLabelPosition=bottom;labelBackgroundColor=#ffffff;verticalAlign=top;align=center;perimeter=ellipsePerimeter;outlineConnect=0;aspect=fixed;outline=end;symbol=terminate2;" parent="9xqgChsdiNvlC2c3Y_gE-5" vertex="1">
          <mxGeometry x="820" y="70" width="50" height="50" as="geometry" />
        </mxCell>
        <mxCell id="Pm_gBeIu3a7H0LE_9hBZ-6" style="edgeStyle=orthogonalEdgeStyle;rounded=0;orthogonalLoop=1;jettySize=auto;html=1;entryX=0;entryY=0.5;entryDx=0;entryDy=0;entryPerimeter=0;" parent="9xqgChsdiNvlC2c3Y_gE-5" source="Pm_gBeIu3a7H0LE_9hBZ-3" target="Pm_gBeIu3a7H0LE_9hBZ-5" edge="1">
          <mxGeometry relative="1" as="geometry" />
        </mxCell>
        <mxCell id="Pm_gBeIu3a7H0LE_9hBZ-22" value="" style="points=[[0.145,0.145,0],[0.5,0,0],[0.855,0.145,0],[1,0.5,0],[0.855,0.855,0],[0.5,1,0],[0.145,0.855,0],[0,0.5,0]];shape=mxgraph.bpmn.event;html=1;verticalLabelPosition=bottom;labelBackgroundColor=#ffffff;verticalAlign=top;align=center;perimeter=ellipsePerimeter;outlineConnect=0;aspect=fixed;outline=standard;symbol=general;" parent="9xqgChsdiNvlC2c3Y_gE-5" vertex="1">
          <mxGeometry x="970" y="70" width="50" height="50" as="geometry" />
        </mxCell>
        <mxCell id="Pm_gBeIu3a7H0LE_9hBZ-23" value="Delete&lt;br&gt;Collaboration" style="points=[[0.25,0,0],[0.5,0,0],[0.75,0,0],[1,0.25,0],[1,0.5,0],[1,0.75,0],[0.75,1,0],[0.5,1,0],[0.25,1,0],[0,0.75,0],[0,0.5,0],[0,0.25,0]];shape=mxgraph.bpmn.task;whiteSpace=wrap;rectStyle=rounded;size=10;html=1;container=1;expand=0;collapsible=0;taskMarker=abstract;" parent="9xqgChsdiNvlC2c3Y_gE-5" vertex="1">
          <mxGeometry x="1080" y="55" width="149" height="80" as="geometry" />
        </mxCell>
        <mxCell id="Pm_gBeIu3a7H0LE_9hBZ-24" style="edgeStyle=orthogonalEdgeStyle;rounded=0;orthogonalLoop=1;jettySize=auto;html=1;entryX=0;entryY=0.5;entryDx=0;entryDy=0;entryPerimeter=0;" parent="9xqgChsdiNvlC2c3Y_gE-5" source="Pm_gBeIu3a7H0LE_9hBZ-22" target="Pm_gBeIu3a7H0LE_9hBZ-23" edge="1">
          <mxGeometry relative="1" as="geometry" />
        </mxCell>
        <mxCell id="Pm_gBeIu3a7H0LE_9hBZ-25" value="" style="points=[[0.145,0.145,0],[0.5,0,0],[0.855,0.145,0],[1,0.5,0],[0.855,0.855,0],[0.5,1,0],[0.145,0.855,0],[0,0.5,0]];shape=mxgraph.bpmn.event;html=1;verticalLabelPosition=bottom;labelBackgroundColor=#ffffff;verticalAlign=top;align=center;perimeter=ellipsePerimeter;outlineConnect=0;aspect=fixed;outline=end;symbol=terminate2;" parent="9xqgChsdiNvlC2c3Y_gE-5" vertex="1">
          <mxGeometry x="1300" y="70" width="50" height="50" as="geometry" />
        </mxCell>
        <mxCell id="Pm_gBeIu3a7H0LE_9hBZ-26" style="edgeStyle=orthogonalEdgeStyle;rounded=0;orthogonalLoop=1;jettySize=auto;html=1;entryX=0;entryY=0.5;entryDx=0;entryDy=0;entryPerimeter=0;" parent="9xqgChsdiNvlC2c3Y_gE-5" source="Pm_gBeIu3a7H0LE_9hBZ-23" target="Pm_gBeIu3a7H0LE_9hBZ-25" edge="1">
          <mxGeometry relative="1" as="geometry" />
        </mxCell>
        <mxCell id="YROoM0nN9e51MhVq9sTk-4" value="" style="points=[[0.145,0.145,0],[0.5,0,0],[0.855,0.145,0],[1,0.5,0],[0.855,0.855,0],[0.5,1,0],[0.145,0.855,0],[0,0.5,0]];shape=mxgraph.bpmn.event;html=1;verticalLabelPosition=bottom;labelBackgroundColor=#ffffff;verticalAlign=top;align=center;perimeter=ellipsePerimeter;outlineConnect=0;aspect=fixed;outline=standard;symbol=signal;" parent="9xqgChsdiNvlC2c3Y_gE-5" vertex="1">
          <mxGeometry x="2240" y="85" width="50" height="50" as="geometry" />
        </mxCell>
        <mxCell id="YROoM0nN9e51MhVq9sTk-6" value="Release&lt;br&gt;Collaboration" style="points=[[0.25,0,0],[0.5,0,0],[0.75,0,0],[1,0.25,0],[1,0.5,0],[1,0.75,0],[0.75,1,0],[0.5,1,0],[0.25,1,0],[0,0.75,0],[0,0.5,0],[0,0.25,0]];shape=mxgraph.bpmn.task;whiteSpace=wrap;rectStyle=rounded;size=10;html=1;container=1;expand=0;collapsible=0;taskMarker=user;" parent="9xqgChsdiNvlC2c3Y_gE-5" vertex="1">
          <mxGeometry x="2440" y="70" width="120" height="80" as="geometry" />
        </mxCell>
        <mxCell id="YROoM0nN9e51MhVq9sTk-12" style="edgeStyle=orthogonalEdgeStyle;rounded=0;orthogonalLoop=1;jettySize=auto;html=1;entryX=0;entryY=0.5;entryDx=0;entryDy=0;entryPerimeter=0;" parent="9xqgChsdiNvlC2c3Y_gE-5" source="7faimwNQt1fbHm9MOCpt-52" target="YROoM0nN9e51MhVq9sTk-6" edge="1">
          <mxGeometry relative="1" as="geometry" />
        </mxCell>
        <mxCell id="YROoM0nN9e51MhVq9sTk-14" style="edgeStyle=orthogonalEdgeStyle;rounded=0;orthogonalLoop=1;jettySize=auto;html=1;entryX=0;entryY=0.5;entryDx=0;entryDy=0;entryPerimeter=0;" parent="9xqgChsdiNvlC2c3Y_gE-5" source="YROoM0nN9e51MhVq9sTk-6" target="YROoM0nN9e51MhVq9sTk-19" edge="1">
          <mxGeometry relative="1" as="geometry">
            <mxPoint x="2760" y="115" as="targetPoint" />
          </mxGeometry>
        </mxCell>
        <mxCell id="YROoM0nN9e51MhVq9sTk-19" value="Waiting on&lt;br&gt;Issue" style="points=[[0.145,0.145,0],[0.5,0,0],[0.855,0.145,0],[1,0.5,0],[0.855,0.855,0],[0.5,1,0],[0.145,0.855,0],[0,0.5,0]];shape=mxgraph.bpmn.event;html=1;verticalLabelPosition=bottom;labelBackgroundColor=#ffffff;verticalAlign=top;align=center;perimeter=ellipsePerimeter;outlineConnect=0;aspect=fixed;outline=catching;symbol=signal;" parent="9xqgChsdiNvlC2c3Y_gE-5" vertex="1">
          <mxGeometry x="2680" y="85" width="50" height="50" as="geometry" />
        </mxCell>
        <mxCell id="YROoM0nN9e51MhVq9sTk-20" value="Issue&lt;br&gt;Collaboration" style="points=[[0.25,0,0],[0.5,0,0],[0.75,0,0],[1,0.25,0],[1,0.5,0],[1,0.75,0],[0.75,1,0],[0.5,1,0],[0.25,1,0],[0,0.75,0],[0,0.5,0],[0,0.25,0]];shape=mxgraph.bpmn.task;whiteSpace=wrap;rectStyle=rounded;size=10;html=1;container=1;expand=0;collapsible=0;taskMarker=user;" parent="9xqgChsdiNvlC2c3Y_gE-5" vertex="1">
          <mxGeometry x="2880" y="70" width="120" height="80" as="geometry" />
        </mxCell>
        <mxCell id="YROoM0nN9e51MhVq9sTk-25" style="edgeStyle=orthogonalEdgeStyle;rounded=0;orthogonalLoop=1;jettySize=auto;html=1;entryX=0;entryY=0.5;entryDx=0;entryDy=0;entryPerimeter=0;" parent="9xqgChsdiNvlC2c3Y_gE-5" source="YROoM0nN9e51MhVq9sTk-19" target="YROoM0nN9e51MhVq9sTk-20" edge="1">
          <mxGeometry relative="1" as="geometry" />
        </mxCell>
        <mxCell id="YROoM0nN9e51MhVq9sTk-26" value="" style="points=[[0.145,0.145,0],[0.5,0,0],[0.855,0.145,0],[1,0.5,0],[0.855,0.855,0],[0.5,1,0],[0.145,0.855,0],[0,0.5,0]];shape=mxgraph.bpmn.event;html=1;verticalLabelPosition=bottom;labelBackgroundColor=#ffffff;verticalAlign=top;align=center;perimeter=ellipsePerimeter;outlineConnect=0;aspect=fixed;outline=end;symbol=signal;" parent="9xqgChsdiNvlC2c3Y_gE-5" vertex="1">
          <mxGeometry x="3120" y="85" width="50" height="50" as="geometry" />
        </mxCell>
        <mxCell id="YROoM0nN9e51MhVq9sTk-27" style="edgeStyle=orthogonalEdgeStyle;rounded=0;orthogonalLoop=1;jettySize=auto;html=1;entryX=0;entryY=0.5;entryDx=0;entryDy=0;entryPerimeter=0;" parent="9xqgChsdiNvlC2c3Y_gE-5" source="YROoM0nN9e51MhVq9sTk-20" target="YROoM0nN9e51MhVq9sTk-26" edge="1">
          <mxGeometry relative="1" as="geometry" />
        </mxCell>
        <mxCell id="7faimwNQt1fbHm9MOCpt-20" value="" style="points=[[0.145,0.145,0],[0.5,0,0],[0.855,0.145,0],[1,0.5,0],[0.855,0.855,0],[0.5,1,0],[0.145,0.855,0],[0,0.5,0]];shape=mxgraph.bpmn.event;html=1;verticalLabelPosition=bottom;labelBackgroundColor=#ffffff;verticalAlign=top;align=center;perimeter=ellipsePerimeter;outlineConnect=0;aspect=fixed;outline=standard;symbol=message;" vertex="1" parent="9xqgChsdiNvlC2c3Y_gE-5">
          <mxGeometry x="2080" y="85" width="50" height="50" as="geometry" />
        </mxCell>
        <mxCell id="7faimwNQt1fbHm9MOCpt-51" value="" style="edgeStyle=orthogonalEdgeStyle;rounded=0;orthogonalLoop=1;jettySize=auto;html=1;entryX=0;entryY=0.5;entryDx=0;entryDy=0;entryPerimeter=0;" edge="1" parent="9xqgChsdiNvlC2c3Y_gE-5" source="YROoM0nN9e51MhVq9sTk-4" target="7faimwNQt1fbHm9MOCpt-52">
          <mxGeometry relative="1" as="geometry">
            <mxPoint x="2400" y="10" as="sourcePoint" />
            <mxPoint x="2550" y="10" as="targetPoint" />
          </mxGeometry>
        </mxCell>
        <mxCell id="7faimwNQt1fbHm9MOCpt-52" value="" style="points=[[0.25,0.25,0],[0.5,0,0],[0.75,0.25,0],[1,0.5,0],[0.75,0.75,0],[0.5,1,0],[0.25,0.75,0],[0,0.5,0]];shape=mxgraph.bpmn.gateway2;html=1;verticalLabelPosition=bottom;labelBackgroundColor=#ffffff;verticalAlign=top;align=center;perimeter=rhombusPerimeter;outlineConnect=0;outline=none;symbol=none;" vertex="1" parent="9xqgChsdiNvlC2c3Y_gE-5">
          <mxGeometry x="2340" y="85" width="50" height="50" as="geometry" />
        </mxCell>
        <mxCell id="7faimwNQt1fbHm9MOCpt-53" style="edgeStyle=orthogonalEdgeStyle;rounded=0;orthogonalLoop=1;jettySize=auto;html=1;entryX=0.5;entryY=0;entryDx=0;entryDy=0;entryPerimeter=0;exitX=0.5;exitY=0;exitDx=0;exitDy=0;exitPerimeter=0;" edge="1" parent="9xqgChsdiNvlC2c3Y_gE-5" source="7faimwNQt1fbHm9MOCpt-20" target="7faimwNQt1fbHm9MOCpt-52">
          <mxGeometry relative="1" as="geometry">
            <Array as="points">
              <mxPoint x="2105" y="40" />
              <mxPoint x="2365" y="40" />
            </Array>
          </mxGeometry>
        </mxCell>
        <mxCell id="9xqgChsdiNvlC2c3Y_gE-6" value="collaborators" style="swimlane;startSize=20;horizontal=0;html=1;whiteSpace=wrap;" parent="1" vertex="1">
          <mxGeometry x="110" y="120" width="3560" height="180" as="geometry" />
        </mxCell>
        <mxCell id="Pm_gBeIu3a7H0LE_9hBZ-37" value="" style="points=[[0.145,0.145,0],[0.5,0,0],[0.855,0.145,0],[1,0.5,0],[0.855,0.855,0],[0.5,1,0],[0.145,0.855,0],[0,0.5,0]];shape=mxgraph.bpmn.event;html=1;verticalLabelPosition=bottom;labelBackgroundColor=#ffffff;verticalAlign=top;align=center;perimeter=ellipsePerimeter;outlineConnect=0;aspect=fixed;outline=standard;symbol=general;" parent="9xqgChsdiNvlC2c3Y_gE-6" vertex="1">
          <mxGeometry x="1310" y="65" width="50" height="50" as="geometry" />
        </mxCell>
        <mxCell id="Pm_gBeIu3a7H0LE_9hBZ-38" value="Search &lt;br&gt;Collaboration" style="points=[[0.25,0,0],[0.5,0,0],[0.75,0,0],[1,0.25,0],[1,0.5,0],[1,0.75,0],[0.75,1,0],[0.5,1,0],[0.25,1,0],[0,0.75,0],[0,0.5,0],[0,0.25,0]];shape=mxgraph.bpmn.task;whiteSpace=wrap;rectStyle=rounded;size=10;html=1;container=1;expand=0;collapsible=0;taskMarker=user;isLoopSub=1;" parent="9xqgChsdiNvlC2c3Y_gE-6" vertex="1">
          <mxGeometry x="1550" y="50" width="120" height="80" as="geometry" />
        </mxCell>
        <mxCell id="Pm_gBeIu3a7H0LE_9hBZ-39" style="edgeStyle=orthogonalEdgeStyle;rounded=0;orthogonalLoop=1;jettySize=auto;html=1;entryX=0;entryY=0.5;entryDx=0;entryDy=0;entryPerimeter=0;" parent="9xqgChsdiNvlC2c3Y_gE-6" source="Pm_gBeIu3a7H0LE_9hBZ-37" target="Pm_gBeIu3a7H0LE_9hBZ-38" edge="1">
          <mxGeometry relative="1" as="geometry" />
        </mxCell>
        <mxCell id="9LnAFsPdzHT2uIMHL5i5-3" value="Request Collaboration" style="points=[[0.25,0,0],[0.5,0,0],[0.75,0,0],[1,0.25,0],[1,0.5,0],[1,0.75,0],[0.75,1,0],[0.5,1,0],[0.25,1,0],[0,0.75,0],[0,0.5,0],[0,0.25,0]];shape=mxgraph.bpmn.task;whiteSpace=wrap;rectStyle=rounded;size=10;html=1;container=1;expand=0;collapsible=0;taskMarker=user;" parent="9xqgChsdiNvlC2c3Y_gE-6" vertex="1">
          <mxGeometry x="1881.5" y="50" width="120" height="80" as="geometry" />
        </mxCell>
        <mxCell id="9LnAFsPdzHT2uIMHL5i5-9" value="" style="edgeStyle=orthogonalEdgeStyle;rounded=0;orthogonalLoop=1;jettySize=auto;html=1;entryX=0;entryY=0.5;entryDx=0;entryDy=0;entryPerimeter=0;" parent="9xqgChsdiNvlC2c3Y_gE-6" source="Pm_gBeIu3a7H0LE_9hBZ-38" target="9LnAFsPdzHT2uIMHL5i5-3" edge="1">
          <mxGeometry relative="1" as="geometry">
            <mxPoint x="1860" y="210" as="sourcePoint" />
            <mxPoint x="1800.5" y="90" as="targetPoint" />
          </mxGeometry>
        </mxCell>
        <mxCell id="7faimwNQt1fbHm9MOCpt-15" value="Email&lt;br&gt;Confirmation" style="points=[[0.145,0.145,0],[0.5,0,0],[0.855,0.145,0],[1,0.5,0],[0.855,0.855,0],[0.5,1,0],[0.145,0.855,0],[0,0.5,0]];shape=mxgraph.bpmn.event;html=1;verticalLabelPosition=bottom;labelBackgroundColor=#ffffff;verticalAlign=top;align=center;perimeter=ellipsePerimeter;outlineConnect=0;aspect=fixed;outline=boundNonint;symbol=message;" vertex="1" parent="9xqgChsdiNvlC2c3Y_gE-6">
          <mxGeometry x="2080" y="65" width="50" height="50" as="geometry" />
        </mxCell>
        <mxCell id="7faimwNQt1fbHm9MOCpt-16" style="edgeStyle=orthogonalEdgeStyle;rounded=0;orthogonalLoop=1;jettySize=auto;html=1;entryX=0;entryY=0.5;entryDx=0;entryDy=0;entryPerimeter=0;" edge="1" parent="9xqgChsdiNvlC2c3Y_gE-6" source="9LnAFsPdzHT2uIMHL5i5-3" target="7faimwNQt1fbHm9MOCpt-15">
          <mxGeometry relative="1" as="geometry" />
        </mxCell>
        <mxCell id="YROoM0nN9e51MhVq9sTk-2" value="" style="points=[[0.145,0.145,0],[0.5,0,0],[0.855,0.145,0],[1,0.5,0],[0.855,0.855,0],[0.5,1,0],[0.145,0.855,0],[0,0.5,0]];shape=mxgraph.bpmn.event;html=1;verticalLabelPosition=bottom;labelBackgroundColor=#ffffff;verticalAlign=top;align=center;perimeter=ellipsePerimeter;outlineConnect=0;aspect=fixed;outline=throwing;symbol=signal;" parent="9xqgChsdiNvlC2c3Y_gE-6" vertex="1">
          <mxGeometry x="2240" y="65" width="50" height="50" as="geometry" />
        </mxCell>
        <mxCell id="7faimwNQt1fbHm9MOCpt-18" style="edgeStyle=orthogonalEdgeStyle;rounded=0;orthogonalLoop=1;jettySize=auto;html=1;entryX=0;entryY=0.5;entryDx=0;entryDy=0;entryPerimeter=0;" edge="1" parent="9xqgChsdiNvlC2c3Y_gE-6" source="7faimwNQt1fbHm9MOCpt-15" target="YROoM0nN9e51MhVq9sTk-2">
          <mxGeometry relative="1" as="geometry" />
        </mxCell>
        <mxCell id="YROoM0nN9e51MhVq9sTk-15" value="" style="points=[[0.145,0.145,0],[0.5,0,0],[0.855,0.145,0],[1,0.5,0],[0.855,0.855,0],[0.5,1,0],[0.145,0.855,0],[0,0.5,0]];shape=mxgraph.bpmn.event;html=1;verticalLabelPosition=bottom;labelBackgroundColor=#ffffff;verticalAlign=top;align=center;perimeter=ellipsePerimeter;outlineConnect=0;aspect=fixed;outline=catching;symbol=signal;" parent="9xqgChsdiNvlC2c3Y_gE-6" vertex="1">
          <mxGeometry x="3120" y="65" width="50" height="50" as="geometry" />
        </mxCell>
        <mxCell id="YROoM0nN9e51MhVq9sTk-16" style="edgeStyle=orthogonalEdgeStyle;rounded=0;orthogonalLoop=1;jettySize=auto;html=1;entryX=0;entryY=0.5;entryDx=0;entryDy=0;entryPerimeter=0;" parent="9xqgChsdiNvlC2c3Y_gE-6" source="YROoM0nN9e51MhVq9sTk-2" target="YROoM0nN9e51MhVq9sTk-15" edge="1">
          <mxGeometry relative="1" as="geometry" />
        </mxCell>
        <mxCell id="YROoM0nN9e51MhVq9sTk-18" value="Confirm&lt;br&gt;Collaboration" style="points=[[0.25,0,0],[0.5,0,0],[0.75,0,0],[1,0.25,0],[1,0.5,0],[1,0.75,0],[0.75,1,0],[0.5,1,0],[0.25,1,0],[0,0.75,0],[0,0.5,0],[0,0.25,0]];shape=mxgraph.bpmn.task;whiteSpace=wrap;rectStyle=rounded;size=10;html=1;container=1;expand=0;collapsible=0;taskMarker=user;" parent="9xqgChsdiNvlC2c3Y_gE-6" vertex="1">
          <mxGeometry x="3260" y="50" width="120" height="80" as="geometry" />
        </mxCell>
        <mxCell id="YROoM0nN9e51MhVq9sTk-29" style="edgeStyle=orthogonalEdgeStyle;rounded=0;orthogonalLoop=1;jettySize=auto;html=1;entryX=0;entryY=0.5;entryDx=0;entryDy=0;entryPerimeter=0;" parent="9xqgChsdiNvlC2c3Y_gE-6" source="YROoM0nN9e51MhVq9sTk-15" target="YROoM0nN9e51MhVq9sTk-18" edge="1">
          <mxGeometry relative="1" as="geometry" />
        </mxCell>
        <mxCell id="7wtACuTyQbF7FT_o1qTg-1" value="" style="points=[[0.145,0.145,0],[0.5,0,0],[0.855,0.145,0],[1,0.5,0],[0.855,0.855,0],[0.5,1,0],[0.145,0.855,0],[0,0.5,0]];shape=mxgraph.bpmn.event;html=1;verticalLabelPosition=bottom;labelBackgroundColor=#ffffff;verticalAlign=top;align=center;perimeter=ellipsePerimeter;outlineConnect=0;aspect=fixed;outline=end;symbol=terminate2;" parent="9xqgChsdiNvlC2c3Y_gE-6" vertex="1">
          <mxGeometry x="3461" y="65" width="50" height="50" as="geometry" />
        </mxCell>
        <mxCell id="7wtACuTyQbF7FT_o1qTg-2" style="edgeStyle=orthogonalEdgeStyle;rounded=0;orthogonalLoop=1;jettySize=auto;html=1;entryX=0;entryY=0.5;entryDx=0;entryDy=0;entryPerimeter=0;" parent="9xqgChsdiNvlC2c3Y_gE-6" source="YROoM0nN9e51MhVq9sTk-18" target="7wtACuTyQbF7FT_o1qTg-1" edge="1">
          <mxGeometry relative="1" as="geometry" />
        </mxCell>
        <mxCell id="9xqgChsdiNvlC2c3Y_gE-18" value="&lt;h1&gt;Definition&lt;/h1&gt;&lt;p&gt;&lt;/p&gt;&lt;ul&gt;&lt;li&gt;* -&amp;gt; Required&lt;/li&gt;&lt;/ul&gt;&lt;p&gt;&lt;/p&gt;" style="text;html=1;strokeColor=none;fillColor=none;spacing=5;spacingTop=-20;whiteSpace=wrap;overflow=hidden;rounded=0;" parent="1" vertex="1">
          <mxGeometry x="80" y="-810" width="190" height="120" as="geometry" />
        </mxCell>
        <mxCell id="Pm_gBeIu3a7H0LE_9hBZ-1" value="Access&lt;br&gt;&quot;business-cockpit&quot;" style="shape=step;perimeter=stepPerimeter;whiteSpace=wrap;html=1;fixedSize=1;" parent="1" vertex="1">
          <mxGeometry x="-100" y="-35" width="180" height="50" as="geometry" />
        </mxCell>
        <mxCell id="Pm_gBeIu3a7H0LE_9hBZ-7" value="NULL" style="swimlane;fontStyle=0;childLayout=stackLayout;horizontal=1;startSize=30;horizontalStack=0;resizeParent=1;resizeParentMax=0;resizeLast=0;collapsible=1;marginBottom=0;whiteSpace=wrap;html=1;fillColor=#ffe6cc;strokeColor=#d79b00;" parent="1" vertex="1">
          <mxGeometry x="720" y="-420" width="220.5" height="280" as="geometry" />
        </mxCell>
        <mxCell id="Pm_gBeIu3a7H0LE_9hBZ-27" value="collaboration_id: int" style="text;strokeColor=none;fillColor=none;align=left;verticalAlign=middle;spacingLeft=4;spacingRight=4;overflow=hidden;points=[[0,0.5],[1,0.5]];portConstraint=eastwest;rotatable=0;whiteSpace=wrap;html=1;" parent="Pm_gBeIu3a7H0LE_9hBZ-7" vertex="1">
          <mxGeometry y="30" width="220.5" height="30" as="geometry" />
        </mxCell>
        <mxCell id="Pm_gBeIu3a7H0LE_9hBZ-9" value="departement_id: int" style="text;strokeColor=none;fillColor=none;align=left;verticalAlign=middle;spacingLeft=4;spacingRight=4;overflow=hidden;points=[[0,0.5],[1,0.5]];portConstraint=eastwest;rotatable=0;whiteSpace=wrap;html=1;" parent="Pm_gBeIu3a7H0LE_9hBZ-7" vertex="1">
          <mxGeometry y="60" width="220.5" height="30" as="geometry" />
        </mxCell>
        <mxCell id="Pm_gBeIu3a7H0LE_9hBZ-10" value="is_public: bool" style="text;strokeColor=none;fillColor=none;align=left;verticalAlign=middle;spacingLeft=4;spacingRight=4;overflow=hidden;points=[[0,0.5],[1,0.5]];portConstraint=eastwest;rotatable=0;whiteSpace=wrap;html=1;" parent="Pm_gBeIu3a7H0LE_9hBZ-7" vertex="1">
          <mxGeometry y="90" width="220.5" height="30" as="geometry" />
        </mxCell>
        <mxCell id="Pm_gBeIu3a7H0LE_9hBZ-11" value="access_limit: bool" style="text;strokeColor=none;fillColor=none;align=left;verticalAlign=middle;spacingLeft=4;spacingRight=4;overflow=hidden;points=[[0,0.5],[1,0.5]];portConstraint=eastwest;rotatable=0;whiteSpace=wrap;html=1;" parent="Pm_gBeIu3a7H0LE_9hBZ-7" vertex="1">
          <mxGeometry y="120" width="220.5" height="30" as="geometry" />
        </mxCell>
        <mxCell id="Pm_gBeIu3a7H0LE_9hBZ-15" value="contact: text* (max. 199)" style="text;strokeColor=none;fillColor=none;align=left;verticalAlign=middle;spacingLeft=4;spacingRight=4;overflow=hidden;points=[[0,0.5],[1,0.5]];portConstraint=eastwest;rotatable=0;whiteSpace=wrap;html=1;" parent="Pm_gBeIu3a7H0LE_9hBZ-7" vertex="1">
          <mxGeometry y="150" width="220.5" height="30" as="geometry" />
        </mxCell>
        <mxCell id="Pm_gBeIu3a7H0LE_9hBZ-20" value="participation: array[Object(&lt;br&gt;&amp;nbsp; &amp;nbsp;date_start, duration, limit,&lt;br&gt;&amp;nbsp; &amp;nbsp;geolocation, fee, conference_link,&lt;br&gt;&amp;nbsp; &amp;nbsp;etc.&lt;br&gt;)], (max. 12)" style="text;strokeColor=none;fillColor=none;align=left;verticalAlign=middle;spacingLeft=4;spacingRight=4;overflow=hidden;points=[[0,0.5],[1,0.5]];portConstraint=eastwest;rotatable=0;whiteSpace=wrap;html=1;" parent="Pm_gBeIu3a7H0LE_9hBZ-7" vertex="1">
          <mxGeometry y="180" width="220.5" height="100" as="geometry" />
        </mxCell>
        <mxCell id="Pm_gBeIu3a7H0LE_9hBZ-28" value="&lt;div style=&quot;color: rgb(204, 204, 204); background-color: rgb(31, 31, 31); font-family: Consolas, &amp;quot;Courier New&amp;quot;, monospace; font-size: 14px; line-height: 19px;&quot;&gt;delete-entity-collaboration&lt;/div&gt;" style="swimlane;fontStyle=0;childLayout=stackLayout;horizontal=1;startSize=30;horizontalStack=0;resizeParent=1;resizeParentMax=0;resizeLast=0;collapsible=1;marginBottom=0;whiteSpace=wrap;html=1;fillColor=#ffe6cc;strokeColor=#d79b00;" parent="1" vertex="1">
          <mxGeometry x="1170" y="-200" width="220.5" height="60" as="geometry" />
        </mxCell>
        <mxCell id="Pm_gBeIu3a7H0LE_9hBZ-29" value="collaboration_id: int" style="text;strokeColor=none;fillColor=none;align=left;verticalAlign=middle;spacingLeft=4;spacingRight=4;overflow=hidden;points=[[0,0.5],[1,0.5]];portConstraint=eastwest;rotatable=0;whiteSpace=wrap;html=1;" parent="Pm_gBeIu3a7H0LE_9hBZ-28" vertex="1">
          <mxGeometry y="30" width="220.5" height="30" as="geometry" />
        </mxCell>
        <mxCell id="Pm_gBeIu3a7H0LE_9hBZ-36" value="Delete Collaboraiton&lt;br&gt;&lt;ul&gt;&lt;li&gt;No collaborators exist&lt;/li&gt;&lt;li&gt;&lt;span style=&quot;background-color: initial;&quot;&gt;If no Flags &quot;date_issued&quot; at collaborators, collaboration can also be deleted&lt;/span&gt;&lt;br&gt;&lt;/li&gt;&lt;ul&gt;&lt;li&gt;&lt;span style=&quot;background-color: initial;&quot;&gt;According to DB-Structure, collaborators must be deleted first, before collaboration can be deleted&amp;nbsp;&lt;/span&gt;&lt;/li&gt;&lt;/ul&gt;&lt;li&gt;Remove Files&lt;/li&gt;&lt;/ul&gt;" style="shape=note;whiteSpace=wrap;html=1;backgroundOutline=1;darkOpacity=0.05;verticalAlign=top;align=left;spacing=12;" parent="1" vertex="1">
          <mxGeometry x="1130.25" y="-400" width="300" height="180" as="geometry" />
        </mxCell>
        <mxCell id="Pm_gBeIu3a7H0LE_9hBZ-42" value="&lt;div&gt;Only accessible Collaborations&lt;/div&gt;&lt;ul&gt;&lt;li&gt;Collaboration is Public&lt;/li&gt;&lt;li&gt;Collaboration is not archived&lt;/li&gt;&lt;li&gt;Entity still exists&lt;/li&gt;&lt;li&gt;Collaborator (user_id) should not exists&lt;/li&gt;&lt;ul&gt;&lt;li&gt;Check Flag &#39;date_confirmed&quot;&lt;/li&gt;&lt;/ul&gt;&lt;li&gt;Check Flag &quot;Access_limit&quot; &amp;gt; 0, that limit of active collaborators is exceeding limits&lt;/li&gt;&lt;ul&gt;&lt;li&gt;&quot;archived&quot; == Null&lt;/li&gt;&lt;li&gt;&quot;date_issued&quot; == Null&lt;/li&gt;&lt;/ul&gt;&lt;/ul&gt;&lt;div&gt;&lt;br&gt;&lt;/div&gt;" style="shape=note;whiteSpace=wrap;html=1;backgroundOutline=1;darkOpacity=0.05;verticalAlign=top;align=left;spacing=12;" parent="1" vertex="1">
          <mxGeometry x="1584.0700000000002" y="410" width="272.12" height="240" as="geometry" />
        </mxCell>
        <mxCell id="9LnAFsPdzHT2uIMHL5i5-2" value="Define &lt;br&gt;Access" style="ellipse;shape=cloud;whiteSpace=wrap;html=1;" parent="1" vertex="1">
          <mxGeometry x="-130" y="-130" width="120" height="80" as="geometry" />
        </mxCell>
        <mxCell id="YROoM0nN9e51MhVq9sTk-1" value="&lt;div&gt;Request Collaboration&lt;/div&gt;&lt;div&gt;&lt;ul&gt;&lt;li&gt;Add Flag: date_requested&lt;/li&gt;&lt;li&gt;Send Email to Collaborator and User (CC)&lt;/li&gt;&lt;ul&gt;&lt;li&gt;E-Mail must include collaborator validation token, so collaboration can be released to collaborator by link&lt;/li&gt;&lt;/ul&gt;&lt;li&gt;&lt;span style=&quot;background-color: initial;&quot;&gt;Flag &quot;Form Required === true&lt;/span&gt;&lt;br&gt;&lt;/li&gt;&lt;ul&gt;&lt;li&gt;Email must include form input by user (content &amp;amp; attachement)&lt;/li&gt;&lt;/ul&gt;&lt;/ul&gt;&lt;/div&gt;" style="shape=note;whiteSpace=wrap;html=1;backgroundOutline=1;darkOpacity=0.05;verticalAlign=top;align=left;spacing=12;" parent="1" vertex="1">
          <mxGeometry x="1894.75" y="410" width="313.5" height="190" as="geometry" />
        </mxCell>
        <mxCell id="YROoM0nN9e51MhVq9sTk-30" value="Collaboration" style="swimlane;fontStyle=0;childLayout=stackLayout;horizontal=1;startSize=30;horizontalStack=0;resizeParent=1;resizeParentMax=0;resizeLast=0;collapsible=1;marginBottom=0;whiteSpace=wrap;html=1;fillColor=#ffe6cc;strokeColor=#d79b00;" parent="1" vertex="1">
          <mxGeometry x="2959.75" y="810" width="220.5" height="200" as="geometry" />
        </mxCell>
        <mxCell id="YROoM0nN9e51MhVq9sTk-31" value="collaboration_id: int" style="text;strokeColor=none;fillColor=none;align=left;verticalAlign=middle;spacingLeft=4;spacingRight=4;overflow=hidden;points=[[0,0.5],[1,0.5]];portConstraint=eastwest;rotatable=0;whiteSpace=wrap;html=1;" parent="YROoM0nN9e51MhVq9sTk-30" vertex="1">
          <mxGeometry y="30" width="220.5" height="30" as="geometry" />
        </mxCell>
        <mxCell id="YROoM0nN9e51MhVq9sTk-37" value="is_public: bool" style="text;strokeColor=none;fillColor=none;align=left;verticalAlign=middle;spacingLeft=4;spacingRight=4;overflow=hidden;points=[[0,0.5],[1,0.5]];portConstraint=eastwest;rotatable=0;whiteSpace=wrap;html=1;" parent="YROoM0nN9e51MhVq9sTk-30" vertex="1">
          <mxGeometry y="60" width="220.5" height="30" as="geometry" />
        </mxCell>
        <mxCell id="YROoM0nN9e51MhVq9sTk-32" value="period_start*: date" style="text;strokeColor=none;fillColor=none;align=left;verticalAlign=middle;spacingLeft=4;spacingRight=4;overflow=hidden;points=[[0,0.5],[1,0.5]];portConstraint=eastwest;rotatable=0;whiteSpace=wrap;html=1;" parent="YROoM0nN9e51MhVq9sTk-30" vertex="1">
          <mxGeometry y="90" width="220.5" height="30" as="geometry" />
        </mxCell>
        <mxCell id="YROoM0nN9e51MhVq9sTk-35" value="period_duration: string" style="text;strokeColor=none;fillColor=none;align=left;verticalAlign=middle;spacingLeft=4;spacingRight=4;overflow=hidden;points=[[0,0.5],[1,0.5]];portConstraint=eastwest;rotatable=0;whiteSpace=wrap;html=1;" parent="YROoM0nN9e51MhVq9sTk-30" vertex="1">
          <mxGeometry y="120" width="220.5" height="30" as="geometry" />
        </mxCell>
        <mxCell id="YROoM0nN9e51MhVq9sTk-36" value="review: Object{&lt;br&gt;&amp;nbsp; TBA&lt;br&gt;}" style="text;strokeColor=none;fillColor=none;align=left;verticalAlign=middle;spacingLeft=4;spacingRight=4;overflow=hidden;points=[[0,0.5],[1,0.5]];portConstraint=eastwest;rotatable=0;whiteSpace=wrap;html=1;" parent="YROoM0nN9e51MhVq9sTk-30" vertex="1">
          <mxGeometry y="150" width="220.5" height="50" as="geometry" />
        </mxCell>
        <mxCell id="YROoM0nN9e51MhVq9sTk-34" value="&lt;div&gt;User confirms collaboration&lt;/div&gt;&lt;div&gt;&lt;ul&gt;&lt;li&gt;Add flag: date_confirmed&lt;/li&gt;&lt;/ul&gt;&lt;/div&gt;" style="shape=note;whiteSpace=wrap;html=1;backgroundOutline=1;darkOpacity=0.05;verticalAlign=top;align=left;spacing=12;" parent="1" vertex="1">
          <mxGeometry x="3293.5" y="410" width="210" height="80" as="geometry" />
        </mxCell>
        <mxCell id="9xqgChsdiNvlC2c3Y_gE-13" value="&lt;div style=&quot;color: rgb(204, 204, 204); background-color: rgb(31, 31, 31); font-family: Consolas, &amp;quot;Courier New&amp;quot;, monospace; font-size: 14px; line-height: 19px;&quot;&gt;&lt;div style=&quot;line-height: 19px;&quot;&gt;/create-entity-collaboration&lt;/div&gt;&lt;/div&gt;" style="swimlane;fontStyle=0;childLayout=stackLayout;horizontal=1;startSize=30;horizontalStack=0;resizeParent=1;resizeParentMax=0;resizeLast=0;collapsible=1;marginBottom=0;whiteSpace=wrap;html=1;fillColor=#ffe6cc;strokeColor=#d79b00;" parent="1" vertex="1">
          <mxGeometry x="250" y="-690" width="258" height="550" as="geometry" />
        </mxCell>
        <mxCell id="9xqgChsdiNvlC2c3Y_gE-22" value="award_id: int*" style="text;strokeColor=none;fillColor=none;align=left;verticalAlign=middle;spacingLeft=4;spacingRight=4;overflow=hidden;points=[[0,0.5],[1,0.5]];portConstraint=eastwest;rotatable=0;whiteSpace=wrap;html=1;" parent="9xqgChsdiNvlC2c3Y_gE-13" vertex="1">
          <mxGeometry y="30" width="258" height="30" as="geometry" />
        </mxCell>
        <mxCell id="9xqgChsdiNvlC2c3Y_gE-23" value="departement_id: int" style="text;strokeColor=none;fillColor=none;align=left;verticalAlign=middle;spacingLeft=4;spacingRight=4;overflow=hidden;points=[[0,0.5],[1,0.5]];portConstraint=eastwest;rotatable=0;whiteSpace=wrap;html=1;" parent="9xqgChsdiNvlC2c3Y_gE-13" vertex="1">
          <mxGeometry y="60" width="258" height="30" as="geometry" />
        </mxCell>
        <mxCell id="9xqgChsdiNvlC2c3Y_gE-20" value="is_public: bool" style="text;strokeColor=none;fillColor=none;align=left;verticalAlign=middle;spacingLeft=4;spacingRight=4;overflow=hidden;points=[[0,0.5],[1,0.5]];portConstraint=eastwest;rotatable=0;whiteSpace=wrap;html=1;" parent="9xqgChsdiNvlC2c3Y_gE-13" vertex="1">
          <mxGeometry y="90" width="258" height="30" as="geometry" />
        </mxCell>
        <mxCell id="9xqgChsdiNvlC2c3Y_gE-21" value="access_limit: bool" style="text;strokeColor=none;fillColor=none;align=left;verticalAlign=middle;spacingLeft=4;spacingRight=4;overflow=hidden;points=[[0,0.5],[1,0.5]];portConstraint=eastwest;rotatable=0;whiteSpace=wrap;html=1;" parent="9xqgChsdiNvlC2c3Y_gE-13" vertex="1">
          <mxGeometry y="120" width="258" height="30" as="geometry" />
        </mxCell>
        <mxCell id="9xqgChsdiNvlC2c3Y_gE-14" value="title: string*" style="text;strokeColor=none;fillColor=none;align=left;verticalAlign=middle;spacingLeft=4;spacingRight=4;overflow=hidden;points=[[0,0.5],[1,0.5]];portConstraint=eastwest;rotatable=0;whiteSpace=wrap;html=1;" parent="9xqgChsdiNvlC2c3Y_gE-13" vertex="1">
          <mxGeometry y="150" width="258" height="30" as="geometry" />
        </mxCell>
        <mxCell id="9xqgChsdiNvlC2c3Y_gE-17" value="meta: string" style="text;strokeColor=none;fillColor=none;align=left;verticalAlign=middle;spacingLeft=4;spacingRight=4;overflow=hidden;points=[[0,0.5],[1,0.5]];portConstraint=eastwest;rotatable=0;whiteSpace=wrap;html=1;" parent="9xqgChsdiNvlC2c3Y_gE-13" vertex="1">
          <mxGeometry y="180" width="258" height="30" as="geometry" />
        </mxCell>
        <mxCell id="9xqgChsdiNvlC2c3Y_gE-15" value="about: text* (max. 499)" style="text;strokeColor=none;fillColor=none;align=left;verticalAlign=middle;spacingLeft=4;spacingRight=4;overflow=hidden;points=[[0,0.5],[1,0.5]];portConstraint=eastwest;rotatable=0;whiteSpace=wrap;html=1;" parent="9xqgChsdiNvlC2c3Y_gE-13" vertex="1">
          <mxGeometry y="210" width="258" height="30" as="geometry" />
        </mxCell>
        <mxCell id="9xqgChsdiNvlC2c3Y_gE-16" value="contact: text* (max. 199)" style="text;strokeColor=none;fillColor=none;align=left;verticalAlign=middle;spacingLeft=4;spacingRight=4;overflow=hidden;points=[[0,0.5],[1,0.5]];portConstraint=eastwest;rotatable=0;whiteSpace=wrap;html=1;" parent="9xqgChsdiNvlC2c3Y_gE-13" vertex="1">
          <mxGeometry y="240" width="258" height="30" as="geometry" />
        </mxCell>
        <mxCell id="fdHy9sLMNmc5y9KvNzS_-1" value="compensation: float" style="text;strokeColor=none;fillColor=none;align=left;verticalAlign=middle;spacingLeft=4;spacingRight=4;overflow=hidden;points=[[0,0.5],[1,0.5]];portConstraint=eastwest;rotatable=0;whiteSpace=wrap;html=1;" parent="9xqgChsdiNvlC2c3Y_gE-13" vertex="1">
          <mxGeometry y="270" width="258" height="30" as="geometry" />
        </mxCell>
        <mxCell id="9xqgChsdiNvlC2c3Y_gE-19" value="tasks: array (max. 12)" style="text;strokeColor=none;fillColor=none;align=left;verticalAlign=middle;spacingLeft=4;spacingRight=4;overflow=hidden;points=[[0,0.5],[1,0.5]];portConstraint=eastwest;rotatable=0;whiteSpace=wrap;html=1;" parent="9xqgChsdiNvlC2c3Y_gE-13" vertex="1">
          <mxGeometry y="300" width="258" height="30" as="geometry" />
        </mxCell>
        <mxCell id="9xqgChsdiNvlC2c3Y_gE-24" value="skills: array[Object(&lt;br&gt;&amp;nbsp; &amp;nbsp;label, description&lt;br&gt;)], (max. 12)" style="text;strokeColor=none;fillColor=none;align=left;verticalAlign=middle;spacingLeft=4;spacingRight=4;overflow=hidden;points=[[0,0.5],[1,0.5]];portConstraint=eastwest;rotatable=0;whiteSpace=wrap;html=1;" parent="9xqgChsdiNvlC2c3Y_gE-13" vertex="1">
          <mxGeometry y="330" width="258" height="70" as="geometry" />
        </mxCell>
        <mxCell id="9xqgChsdiNvlC2c3Y_gE-25" value="files: array[File] (max. 5, 25MB, *pdf, images/*)" style="text;strokeColor=none;fillColor=none;align=left;verticalAlign=middle;spacingLeft=4;spacingRight=4;overflow=hidden;points=[[0,0.5],[1,0.5]];portConstraint=eastwest;rotatable=0;whiteSpace=wrap;html=1;" parent="9xqgChsdiNvlC2c3Y_gE-13" vertex="1">
          <mxGeometry y="400" width="258" height="50" as="geometry" />
        </mxCell>
        <mxCell id="9xqgChsdiNvlC2c3Y_gE-26" value="participation: array[Object(&lt;br&gt;&amp;nbsp; &amp;nbsp;date_start, duration, limit,&lt;br&gt;&amp;nbsp; &amp;nbsp;geolocation, fee, conference_link,&lt;br&gt;&amp;nbsp; &amp;nbsp;etc.&lt;br&gt;)], (max. 12)" style="text;strokeColor=none;fillColor=none;align=left;verticalAlign=middle;spacingLeft=4;spacingRight=4;overflow=hidden;points=[[0,0.5],[1,0.5]];portConstraint=eastwest;rotatable=0;whiteSpace=wrap;html=1;" parent="9xqgChsdiNvlC2c3Y_gE-13" vertex="1">
          <mxGeometry y="450" width="258" height="100" as="geometry" />
        </mxCell>
        <mxCell id="Pm_gBeIu3a7H0LE_9hBZ-43" value="&lt;div style=&quot;color: rgb(204, 204, 204); background-color: rgb(31, 31, 31); font-family: Consolas, &amp;quot;Courier New&amp;quot;, monospace; font-size: 14px; line-height: 19px;&quot;&gt;/search-community-collaborations&lt;/div&gt;" style="swimlane;fontStyle=0;childLayout=stackLayout;horizontal=1;startSize=30;horizontalStack=0;resizeParent=1;resizeParentMax=0;resizeLast=0;collapsible=1;marginBottom=0;whiteSpace=wrap;html=1;fillColor=#ffe6cc;strokeColor=#d79b00;" parent="1" vertex="1">
          <mxGeometry x="1570" y="330" width="300.25" height="60" as="geometry" />
        </mxCell>
        <mxCell id="Pm_gBeIu3a7H0LE_9hBZ-44" value="Collection: [{TBA}]" style="text;strokeColor=none;fillColor=none;align=left;verticalAlign=middle;spacingLeft=4;spacingRight=4;overflow=hidden;points=[[0,0.5],[1,0.5]];portConstraint=eastwest;rotatable=0;whiteSpace=wrap;html=1;" parent="Pm_gBeIu3a7H0LE_9hBZ-43" vertex="1">
          <mxGeometry y="30" width="300.25" height="30" as="geometry" />
        </mxCell>
        <mxCell id="9LnAFsPdzHT2uIMHL5i5-4" value="&lt;div style=&quot;color: rgb(204, 204, 204); background-color: rgb(31, 31, 31); font-family: Consolas, &amp;quot;Courier New&amp;quot;, monospace; font-size: 14px; line-height: 19px;&quot;&gt;/user-request-collaboration&lt;/div&gt;" style="swimlane;fontStyle=0;childLayout=stackLayout;horizontal=1;startSize=30;horizontalStack=0;resizeParent=1;resizeParentMax=0;resizeLast=0;collapsible=1;marginBottom=0;whiteSpace=wrap;html=1;fillColor=#ffe6cc;strokeColor=#d79b00;" parent="1" vertex="1">
          <mxGeometry x="1915" y="330" width="273" height="60" as="geometry" />
        </mxCell>
        <mxCell id="9LnAFsPdzHT2uIMHL5i5-5" value="collaboration_id: int" style="text;strokeColor=none;fillColor=none;align=left;verticalAlign=middle;spacingLeft=4;spacingRight=4;overflow=hidden;points=[[0,0.5],[1,0.5]];portConstraint=eastwest;rotatable=0;whiteSpace=wrap;html=1;" parent="9LnAFsPdzHT2uIMHL5i5-4" vertex="1">
          <mxGeometry y="30" width="273" height="30" as="geometry" />
        </mxCell>
        <mxCell id="7faimwNQt1fbHm9MOCpt-13" value="Access&lt;br&gt;&quot;user&quot;" style="shape=step;perimeter=stepPerimeter;whiteSpace=wrap;html=1;fixedSize=1;" vertex="1" parent="1">
          <mxGeometry x="-100" y="180" width="180" height="50" as="geometry" />
        </mxCell>
        <mxCell id="YROoM0nN9e51MhVq9sTk-10" value="&lt;div&gt;Release Collaboration&lt;/div&gt;&lt;div&gt;&lt;ul&gt;&lt;li&gt;Add Flag: date_released&lt;/li&gt;&lt;/ul&gt;&lt;/div&gt;" style="shape=note;whiteSpace=wrap;html=1;backgroundOutline=1;darkOpacity=0.05;verticalAlign=top;align=left;spacing=12;" parent="1" vertex="1">
          <mxGeometry x="2500" y="-330" width="220" height="90" as="geometry" />
        </mxCell>
        <mxCell id="YROoM0nN9e51MhVq9sTk-5" style="edgeStyle=orthogonalEdgeStyle;rounded=0;orthogonalLoop=1;jettySize=auto;html=1;entryX=0.5;entryY=1;entryDx=0;entryDy=0;entryPerimeter=0;dashed=1;" parent="1" source="YROoM0nN9e51MhVq9sTk-2" target="YROoM0nN9e51MhVq9sTk-4" edge="1">
          <mxGeometry relative="1" as="geometry" />
        </mxCell>
        <mxCell id="YROoM0nN9e51MhVq9sTk-7" value="&lt;div style=&quot;color: rgb(204, 204, 204); background-color: rgb(31, 31, 31); font-family: Consolas, &amp;quot;Courier New&amp;quot;, monospace; font-size: 14px; line-height: 19px;&quot;&gt;/release-collaboration-to-collaborator&lt;/div&gt;" style="swimlane;fontStyle=0;childLayout=stackLayout;horizontal=1;startSize=30;horizontalStack=0;resizeParent=1;resizeParentMax=0;resizeLast=0;collapsible=1;marginBottom=0;whiteSpace=wrap;html=1;fillColor=#ffe6cc;strokeColor=#d79b00;" parent="1" vertex="1">
          <mxGeometry x="2500" y="-190" width="220.5" height="70" as="geometry" />
        </mxCell>
        <mxCell id="YROoM0nN9e51MhVq9sTk-8" value="collaborator_id: int" style="text;strokeColor=none;fillColor=none;align=left;verticalAlign=middle;spacingLeft=4;spacingRight=4;overflow=hidden;points=[[0,0.5],[1,0.5]];portConstraint=eastwest;rotatable=0;whiteSpace=wrap;html=1;" parent="YROoM0nN9e51MhVq9sTk-7" vertex="1">
          <mxGeometry y="30" width="220.5" height="40" as="geometry" />
        </mxCell>
        <mxCell id="7faimwNQt1fbHm9MOCpt-21" style="edgeStyle=orthogonalEdgeStyle;rounded=0;orthogonalLoop=1;jettySize=auto;html=1;entryX=0.5;entryY=1;entryDx=0;entryDy=0;entryPerimeter=0;dashed=1;" edge="1" parent="1" source="7faimwNQt1fbHm9MOCpt-15" target="7faimwNQt1fbHm9MOCpt-20">
          <mxGeometry relative="1" as="geometry" />
        </mxCell>
        <mxCell id="YROoM0nN9e51MhVq9sTk-21" value="&lt;div style=&quot;color: rgb(204, 204, 204); background-color: rgb(31, 31, 31); font-family: Consolas, &amp;quot;Courier New&amp;quot;, monospace; font-size: 14px; line-height: 19px;&quot;&gt;/issue-collaboration-to-collaborator&lt;/div&gt;" style="swimlane;fontStyle=0;childLayout=stackLayout;horizontal=1;startSize=30;horizontalStack=0;resizeParent=1;resizeParentMax=0;resizeLast=0;collapsible=1;marginBottom=0;whiteSpace=wrap;html=1;fillColor=#ffe6cc;strokeColor=#d79b00;" parent="1" vertex="1">
          <mxGeometry x="2940" y="-180" width="220.5" height="60" as="geometry" />
        </mxCell>
        <mxCell id="YROoM0nN9e51MhVq9sTk-22" value="collaborator_id: int" style="text;strokeColor=none;fillColor=none;align=left;verticalAlign=middle;spacingLeft=4;spacingRight=4;overflow=hidden;points=[[0,0.5],[1,0.5]];portConstraint=eastwest;rotatable=0;whiteSpace=wrap;html=1;" parent="YROoM0nN9e51MhVq9sTk-21" vertex="1">
          <mxGeometry y="30" width="220.5" height="30" as="geometry" />
        </mxCell>
        <mxCell id="YROoM0nN9e51MhVq9sTk-23" value="&lt;div&gt;Issue Collaboration&lt;/div&gt;&lt;div&gt;&lt;ul&gt;&lt;li&gt;Add Flag: date_issued&lt;/li&gt;&lt;/ul&gt;&lt;/div&gt;" style="shape=note;whiteSpace=wrap;html=1;backgroundOutline=1;darkOpacity=0.05;verticalAlign=top;align=left;spacing=12;" parent="1" vertex="1">
          <mxGeometry x="2940" y="-330" width="230" height="80" as="geometry" />
        </mxCell>
        <mxCell id="YROoM0nN9e51MhVq9sTk-28" style="edgeStyle=orthogonalEdgeStyle;rounded=0;orthogonalLoop=1;jettySize=auto;html=1;entryX=0.5;entryY=0;entryDx=0;entryDy=0;entryPerimeter=0;dashed=1;" parent="1" source="YROoM0nN9e51MhVq9sTk-26" target="YROoM0nN9e51MhVq9sTk-15" edge="1">
          <mxGeometry relative="1" as="geometry" />
        </mxCell>
        <mxCell id="7faimwNQt1fbHm9MOCpt-27" value="Add new Collaborator to Collaboration" style="points=[[0.25,0,0],[0.5,0,0],[0.75,0,0],[1,0.25,0],[1,0.5,0],[1,0.75,0],[0.75,1,0],[0.5,1,0],[0.25,1,0],[0,0.75,0],[0,0.5,0],[0,0.25,0]];shape=mxgraph.bpmn.task;whiteSpace=wrap;rectStyle=rounded;size=10;html=1;container=1;expand=0;collapsible=0;taskMarker=user;" vertex="1" parent="1">
          <mxGeometry x="1860" y="-730" width="149" height="80" as="geometry" />
        </mxCell>
        <mxCell id="7faimwNQt1fbHm9MOCpt-28" value="" style="points=[[0.145,0.145,0],[0.5,0,0],[0.855,0.145,0],[1,0.5,0],[0.855,0.855,0],[0.5,1,0],[0.145,0.855,0],[0,0.5,0]];shape=mxgraph.bpmn.event;html=1;verticalLabelPosition=bottom;labelBackgroundColor=#ffffff;verticalAlign=top;align=center;perimeter=ellipsePerimeter;outlineConnect=0;aspect=fixed;outline=standard;symbol=general;" vertex="1" parent="1">
          <mxGeometry x="1700" y="-715" width="50" height="50" as="geometry" />
        </mxCell>
        <mxCell id="7faimwNQt1fbHm9MOCpt-31" style="edgeStyle=orthogonalEdgeStyle;rounded=0;orthogonalLoop=1;jettySize=auto;html=1;entryX=0;entryY=0.5;entryDx=0;entryDy=0;entryPerimeter=0;" edge="1" parent="1" source="7faimwNQt1fbHm9MOCpt-28" target="7faimwNQt1fbHm9MOCpt-27">
          <mxGeometry relative="1" as="geometry" />
        </mxCell>
        <mxCell id="7faimwNQt1fbHm9MOCpt-43" value="&quot;User must agree request first!" style="ellipse;shape=cloud;whiteSpace=wrap;html=1;" vertex="1" parent="1">
          <mxGeometry x="1760" y="-790" width="120" height="80" as="geometry" />
        </mxCell>
        <mxCell id="7faimwNQt1fbHm9MOCpt-37" value="&lt;div style=&quot;color: rgb(204, 204, 204); background-color: rgb(31, 31, 31); font-family: Consolas, &amp;quot;Courier New&amp;quot;, monospace; font-size: 14px; line-height: 19px;&quot;&gt;release-collaboration-to-new-collaborator&lt;/div&gt;" style="swimlane;fontStyle=0;childLayout=stackLayout;horizontal=1;startSize=30;horizontalStack=0;resizeParent=1;resizeParentMax=0;resizeLast=0;collapsible=1;marginBottom=0;whiteSpace=wrap;html=1;fillColor=#ffe6cc;strokeColor=#d79b00;" vertex="1" parent="1">
          <mxGeometry x="1830" y="-910" width="220.5" height="90" as="geometry" />
        </mxCell>
        <mxCell id="7faimwNQt1fbHm9MOCpt-39" value="user_id: int" style="text;strokeColor=none;fillColor=none;align=left;verticalAlign=middle;spacingLeft=4;spacingRight=4;overflow=hidden;points=[[0,0.5],[1,0.5]];portConstraint=eastwest;rotatable=0;whiteSpace=wrap;html=1;" vertex="1" parent="7faimwNQt1fbHm9MOCpt-37">
          <mxGeometry y="30" width="220.5" height="30" as="geometry" />
        </mxCell>
        <mxCell id="7faimwNQt1fbHm9MOCpt-40" value="collaboration_id: int" style="text;strokeColor=none;fillColor=none;align=left;verticalAlign=middle;spacingLeft=4;spacingRight=4;overflow=hidden;points=[[0,0.5],[1,0.5]];portConstraint=eastwest;rotatable=0;whiteSpace=wrap;html=1;" vertex="1" parent="7faimwNQt1fbHm9MOCpt-37">
          <mxGeometry y="60" width="220.5" height="30" as="geometry" />
        </mxCell>
        <mxCell id="7faimwNQt1fbHm9MOCpt-42" value="&lt;div&gt;Add new User to existing collaboration&lt;/div&gt;&lt;div&gt;&lt;ul&gt;&lt;li&gt;Check Limits&lt;/li&gt;&lt;li&gt;User must exist&lt;/li&gt;&lt;li&gt;Add new collaborator&lt;/li&gt;&lt;li&gt;Define collaborator token&lt;/li&gt;&lt;/ul&gt;&lt;/div&gt;" style="shape=note;whiteSpace=wrap;html=1;backgroundOutline=1;darkOpacity=0.05;verticalAlign=top;align=left;spacing=12;" vertex="1" parent="1">
          <mxGeometry x="1830.5" y="-1060" width="220" height="130" as="geometry" />
        </mxCell>
        <mxCell id="7faimwNQt1fbHm9MOCpt-45" style="edgeStyle=orthogonalEdgeStyle;rounded=0;orthogonalLoop=1;jettySize=auto;html=1;entryX=0.5;entryY=1;entryDx=0;entryDy=0;entryPerimeter=0;dashed=1;" edge="1" parent="1" source="Pm_gBeIu3a7H0LE_9hBZ-43" target="Pm_gBeIu3a7H0LE_9hBZ-38">
          <mxGeometry relative="1" as="geometry" />
        </mxCell>
        <mxCell id="7faimwNQt1fbHm9MOCpt-47" style="edgeStyle=orthogonalEdgeStyle;rounded=0;orthogonalLoop=1;jettySize=auto;html=1;entryX=0.5;entryY=0;entryDx=0;entryDy=0;dashed=1;" edge="1" parent="1" source="9LnAFsPdzHT2uIMHL5i5-3" target="9LnAFsPdzHT2uIMHL5i5-4">
          <mxGeometry relative="1" as="geometry" />
        </mxCell>
        <mxCell id="7faimwNQt1fbHm9MOCpt-48" value="&lt;div style=&quot;color: rgb(204, 204, 204); background-color: rgb(31, 31, 31); font-family: Consolas, &amp;quot;Courier New&amp;quot;, monospace; font-size: 14px; line-height: 19px;&quot;&gt;&lt;div style=&quot;line-height: 19px;&quot;&gt;/user-confirm-collaboration&lt;/div&gt;&lt;/div&gt;" style="swimlane;fontStyle=0;childLayout=stackLayout;horizontal=1;startSize=30;horizontalStack=0;resizeParent=1;resizeParentMax=0;resizeLast=0;collapsible=1;marginBottom=0;whiteSpace=wrap;html=1;fillColor=#ffe6cc;strokeColor=#d79b00;" vertex="1" parent="1">
          <mxGeometry x="3293.5" y="330" width="273" height="60" as="geometry" />
        </mxCell>
        <mxCell id="7faimwNQt1fbHm9MOCpt-49" value="collaboration_id: int" style="text;strokeColor=none;fillColor=none;align=left;verticalAlign=middle;spacingLeft=4;spacingRight=4;overflow=hidden;points=[[0,0.5],[1,0.5]];portConstraint=eastwest;rotatable=0;whiteSpace=wrap;html=1;" vertex="1" parent="7faimwNQt1fbHm9MOCpt-48">
          <mxGeometry y="30" width="273" height="30" as="geometry" />
        </mxCell>
        <mxCell id="7faimwNQt1fbHm9MOCpt-50" style="edgeStyle=orthogonalEdgeStyle;rounded=0;orthogonalLoop=1;jettySize=auto;html=1;entryX=0.5;entryY=0;entryDx=0;entryDy=0;dashed=1;" edge="1" parent="1" source="YROoM0nN9e51MhVq9sTk-18" target="7faimwNQt1fbHm9MOCpt-48">
          <mxGeometry relative="1" as="geometry" />
        </mxCell>
        <mxCell id="7faimwNQt1fbHm9MOCpt-54" style="edgeStyle=orthogonalEdgeStyle;rounded=0;orthogonalLoop=1;jettySize=auto;html=1;entryX=0.498;entryY=0.986;entryDx=0;entryDy=0;entryPerimeter=0;dashed=1;" edge="1" parent="1" source="YROoM0nN9e51MhVq9sTk-6" target="YROoM0nN9e51MhVq9sTk-8">
          <mxGeometry relative="1" as="geometry" />
        </mxCell>
        <mxCell id="7faimwNQt1fbHm9MOCpt-55" style="edgeStyle=orthogonalEdgeStyle;rounded=0;orthogonalLoop=1;jettySize=auto;html=1;entryX=0.504;entryY=1.029;entryDx=0;entryDy=0;entryPerimeter=0;dashed=1;" edge="1" parent="1" source="YROoM0nN9e51MhVq9sTk-20" target="YROoM0nN9e51MhVq9sTk-22">
          <mxGeometry relative="1" as="geometry" />
        </mxCell>
        <mxCell id="7faimwNQt1fbHm9MOCpt-56" style="edgeStyle=orthogonalEdgeStyle;rounded=0;orthogonalLoop=1;jettySize=auto;html=1;entryX=0.47;entryY=1.01;entryDx=0;entryDy=0;entryPerimeter=0;dashed=1;" edge="1" parent="1" source="9xqgChsdiNvlC2c3Y_gE-8" target="9xqgChsdiNvlC2c3Y_gE-26">
          <mxGeometry relative="1" as="geometry" />
        </mxCell>
        <mxCell id="7faimwNQt1fbHm9MOCpt-57" style="edgeStyle=orthogonalEdgeStyle;rounded=0;orthogonalLoop=1;jettySize=auto;html=1;entryX=0.454;entryY=1;entryDx=0;entryDy=0;entryPerimeter=0;dashed=1;" edge="1" parent="1" source="Pm_gBeIu3a7H0LE_9hBZ-3" target="Pm_gBeIu3a7H0LE_9hBZ-20">
          <mxGeometry relative="1" as="geometry" />
        </mxCell>
        <mxCell id="7faimwNQt1fbHm9MOCpt-58" style="edgeStyle=orthogonalEdgeStyle;rounded=0;orthogonalLoop=1;jettySize=auto;html=1;entryX=0.429;entryY=1.033;entryDx=0;entryDy=0;entryPerimeter=0;dashed=1;" edge="1" parent="1" source="Pm_gBeIu3a7H0LE_9hBZ-23" target="Pm_gBeIu3a7H0LE_9hBZ-29">
          <mxGeometry relative="1" as="geometry" />
        </mxCell>
      </root>
    </mxGraphModel>
  </diagram>
  <diagram name="FTR 2: Collaborators" id="0OoK30Q9vq8giQuXsuc2">
    <mxGraphModel grid="1" page="1" gridSize="10" guides="1" tooltips="1" connect="1" arrows="1" fold="1" pageScale="1" pageWidth="827" pageHeight="1169" math="0" shadow="0">
      <root>
        <mxCell id="CR3KZccYkwdmARgacye9-0" />
        <mxCell id="CR3KZccYkwdmARgacye9-1" parent="CR3KZccYkwdmARgacye9-0" />
        <mxCell id="CR3KZccYkwdmARgacye9-2" value="Entity" style="swimlane;startSize=20;horizontal=0;html=1;whiteSpace=wrap;" parent="CR3KZccYkwdmARgacye9-1" vertex="1">
          <mxGeometry x="110" y="-100" width="3170" height="180" as="geometry" />
        </mxCell>
        <mxCell id="CR3KZccYkwdmARgacye9-3" value="" style="points=[[0.145,0.145,0],[0.5,0,0],[0.855,0.145,0],[1,0.5,0],[0.855,0.855,0],[0.5,1,0],[0.145,0.855,0],[0,0.5,0]];shape=mxgraph.bpmn.event;html=1;verticalLabelPosition=bottom;labelBackgroundColor=#ffffff;verticalAlign=top;align=center;perimeter=ellipsePerimeter;outlineConnect=0;aspect=fixed;outline=standard;symbol=general;" parent="CR3KZccYkwdmARgacye9-2" vertex="1">
          <mxGeometry x="80" y="70" width="50" height="50" as="geometry" />
        </mxCell>
        <mxCell id="CR3KZccYkwdmARgacye9-4" value="Create &lt;br&gt;Collaboration" style="points=[[0.25,0,0],[0.5,0,0],[0.75,0,0],[1,0.25,0],[1,0.5,0],[1,0.75,0],[0.75,1,0],[0.5,1,0],[0.25,1,0],[0,0.75,0],[0,0.5,0],[0,0.25,0]];shape=mxgraph.bpmn.task;whiteSpace=wrap;rectStyle=rounded;size=10;html=1;container=1;expand=0;collapsible=0;taskMarker=abstract;" parent="CR3KZccYkwdmARgacye9-2" vertex="1">
          <mxGeometry x="200" y="55" width="120" height="80" as="geometry" />
        </mxCell>
        <mxCell id="CR3KZccYkwdmARgacye9-5" value="" style="points=[[0.145,0.145,0],[0.5,0,0],[0.855,0.145,0],[1,0.5,0],[0.855,0.855,0],[0.5,1,0],[0.145,0.855,0],[0,0.5,0]];shape=mxgraph.bpmn.event;html=1;verticalLabelPosition=bottom;labelBackgroundColor=#ffffff;verticalAlign=top;align=center;perimeter=ellipsePerimeter;outlineConnect=0;aspect=fixed;outline=end;symbol=terminate2;" parent="CR3KZccYkwdmARgacye9-2" vertex="1">
          <mxGeometry x="380" y="70" width="50" height="50" as="geometry" />
        </mxCell>
        <mxCell id="CR3KZccYkwdmARgacye9-6" style="edgeStyle=orthogonalEdgeStyle;rounded=0;orthogonalLoop=1;jettySize=auto;html=1;entryX=0;entryY=0.5;entryDx=0;entryDy=0;entryPerimeter=0;" parent="CR3KZccYkwdmARgacye9-2" source="CR3KZccYkwdmARgacye9-4" target="CR3KZccYkwdmARgacye9-5" edge="1">
          <mxGeometry relative="1" as="geometry" />
        </mxCell>
        <mxCell id="CR3KZccYkwdmARgacye9-7" style="edgeStyle=orthogonalEdgeStyle;rounded=0;orthogonalLoop=1;jettySize=auto;html=1;entryX=0;entryY=0.5;entryDx=0;entryDy=0;entryPerimeter=0;" parent="CR3KZccYkwdmARgacye9-2" source="CR3KZccYkwdmARgacye9-3" target="CR3KZccYkwdmARgacye9-4" edge="1">
          <mxGeometry relative="1" as="geometry" />
        </mxCell>
        <mxCell id="CR3KZccYkwdmARgacye9-8" value="" style="points=[[0.145,0.145,0],[0.5,0,0],[0.855,0.145,0],[1,0.5,0],[0.855,0.855,0],[0.5,1,0],[0.145,0.855,0],[0,0.5,0]];shape=mxgraph.bpmn.event;html=1;verticalLabelPosition=bottom;labelBackgroundColor=#ffffff;verticalAlign=top;align=center;perimeter=ellipsePerimeter;outlineConnect=0;aspect=fixed;outline=standard;symbol=general;" parent="CR3KZccYkwdmARgacye9-2" vertex="1">
          <mxGeometry x="530" y="70" width="50" height="50" as="geometry" />
        </mxCell>
        <mxCell id="CR3KZccYkwdmARgacye9-9" value="Update&lt;br&gt;Collaboration" style="points=[[0.25,0,0],[0.5,0,0],[0.75,0,0],[1,0.25,0],[1,0.5,0],[1,0.75,0],[0.75,1,0],[0.5,1,0],[0.25,1,0],[0,0.75,0],[0,0.5,0],[0,0.25,0]];shape=mxgraph.bpmn.task;whiteSpace=wrap;rectStyle=rounded;size=10;html=1;container=1;expand=0;collapsible=0;taskMarker=abstract;" parent="CR3KZccYkwdmARgacye9-2" vertex="1">
          <mxGeometry x="650" y="55" width="120" height="80" as="geometry" />
        </mxCell>
        <mxCell id="CR3KZccYkwdmARgacye9-10" style="edgeStyle=orthogonalEdgeStyle;rounded=0;orthogonalLoop=1;jettySize=auto;html=1;entryX=0;entryY=0.5;entryDx=0;entryDy=0;entryPerimeter=0;" parent="CR3KZccYkwdmARgacye9-2" source="CR3KZccYkwdmARgacye9-8" target="CR3KZccYkwdmARgacye9-9" edge="1">
          <mxGeometry relative="1" as="geometry" />
        </mxCell>
        <mxCell id="CR3KZccYkwdmARgacye9-11" value="" style="points=[[0.145,0.145,0],[0.5,0,0],[0.855,0.145,0],[1,0.5,0],[0.855,0.855,0],[0.5,1,0],[0.145,0.855,0],[0,0.5,0]];shape=mxgraph.bpmn.event;html=1;verticalLabelPosition=bottom;labelBackgroundColor=#ffffff;verticalAlign=top;align=center;perimeter=ellipsePerimeter;outlineConnect=0;aspect=fixed;outline=end;symbol=terminate2;" parent="CR3KZccYkwdmARgacye9-2" vertex="1">
          <mxGeometry x="820" y="70" width="50" height="50" as="geometry" />
        </mxCell>
        <mxCell id="CR3KZccYkwdmARgacye9-12" style="edgeStyle=orthogonalEdgeStyle;rounded=0;orthogonalLoop=1;jettySize=auto;html=1;entryX=0;entryY=0.5;entryDx=0;entryDy=0;entryPerimeter=0;" parent="CR3KZccYkwdmARgacye9-2" source="CR3KZccYkwdmARgacye9-9" target="CR3KZccYkwdmARgacye9-11" edge="1">
          <mxGeometry relative="1" as="geometry" />
        </mxCell>
        <mxCell id="CR3KZccYkwdmARgacye9-13" value="" style="points=[[0.145,0.145,0],[0.5,0,0],[0.855,0.145,0],[1,0.5,0],[0.855,0.855,0],[0.5,1,0],[0.145,0.855,0],[0,0.5,0]];shape=mxgraph.bpmn.event;html=1;verticalLabelPosition=bottom;labelBackgroundColor=#ffffff;verticalAlign=top;align=center;perimeter=ellipsePerimeter;outlineConnect=0;aspect=fixed;outline=standard;symbol=general;" parent="CR3KZccYkwdmARgacye9-2" vertex="1">
          <mxGeometry x="970" y="70" width="50" height="50" as="geometry" />
        </mxCell>
        <mxCell id="CR3KZccYkwdmARgacye9-14" value="Delete&lt;br&gt;Collaboration&lt;br&gt;(only if no collaborators exists)" style="points=[[0.25,0,0],[0.5,0,0],[0.75,0,0],[1,0.25,0],[1,0.5,0],[1,0.75,0],[0.75,1,0],[0.5,1,0],[0.25,1,0],[0,0.75,0],[0,0.5,0],[0,0.25,0]];shape=mxgraph.bpmn.task;whiteSpace=wrap;rectStyle=rounded;size=10;html=1;container=1;expand=0;collapsible=0;taskMarker=abstract;" parent="CR3KZccYkwdmARgacye9-2" vertex="1">
          <mxGeometry x="1080" y="55" width="149" height="80" as="geometry" />
        </mxCell>
        <mxCell id="CR3KZccYkwdmARgacye9-15" style="edgeStyle=orthogonalEdgeStyle;rounded=0;orthogonalLoop=1;jettySize=auto;html=1;entryX=0;entryY=0.5;entryDx=0;entryDy=0;entryPerimeter=0;" parent="CR3KZccYkwdmARgacye9-2" source="CR3KZccYkwdmARgacye9-13" target="CR3KZccYkwdmARgacye9-14" edge="1">
          <mxGeometry relative="1" as="geometry" />
        </mxCell>
        <mxCell id="CR3KZccYkwdmARgacye9-16" value="" style="points=[[0.145,0.145,0],[0.5,0,0],[0.855,0.145,0],[1,0.5,0],[0.855,0.855,0],[0.5,1,0],[0.145,0.855,0],[0,0.5,0]];shape=mxgraph.bpmn.event;html=1;verticalLabelPosition=bottom;labelBackgroundColor=#ffffff;verticalAlign=top;align=center;perimeter=ellipsePerimeter;outlineConnect=0;aspect=fixed;outline=end;symbol=terminate2;" parent="CR3KZccYkwdmARgacye9-2" vertex="1">
          <mxGeometry x="1300" y="70" width="50" height="50" as="geometry" />
        </mxCell>
        <mxCell id="CR3KZccYkwdmARgacye9-17" style="edgeStyle=orthogonalEdgeStyle;rounded=0;orthogonalLoop=1;jettySize=auto;html=1;entryX=0;entryY=0.5;entryDx=0;entryDy=0;entryPerimeter=0;" parent="CR3KZccYkwdmARgacye9-2" source="CR3KZccYkwdmARgacye9-14" target="CR3KZccYkwdmARgacye9-16" edge="1">
          <mxGeometry relative="1" as="geometry" />
        </mxCell>
        <mxCell id="CR3KZccYkwdmARgacye9-18" value="" style="points=[[0.145,0.145,0],[0.5,0,0],[0.855,0.145,0],[1,0.5,0],[0.855,0.855,0],[0.5,1,0],[0.145,0.855,0],[0,0.5,0]];shape=mxgraph.bpmn.event;html=1;verticalLabelPosition=bottom;labelBackgroundColor=#ffffff;verticalAlign=top;align=center;perimeter=ellipsePerimeter;outlineConnect=0;aspect=fixed;outline=standard;symbol=signal;" parent="CR3KZccYkwdmARgacye9-2" vertex="1">
          <mxGeometry x="2090" y="70" width="50" height="50" as="geometry" />
        </mxCell>
        <mxCell id="CR3KZccYkwdmARgacye9-19" value="Release&lt;br&gt;Collaboration" style="points=[[0.25,0,0],[0.5,0,0],[0.75,0,0],[1,0.25,0],[1,0.5,0],[1,0.75,0],[0.75,1,0],[0.5,1,0],[0.25,1,0],[0,0.75,0],[0,0.5,0],[0,0.25,0]];shape=mxgraph.bpmn.task;whiteSpace=wrap;rectStyle=rounded;size=10;html=1;container=1;expand=0;collapsible=0;taskMarker=manual;" parent="CR3KZccYkwdmARgacye9-2" vertex="1">
          <mxGeometry x="2210" y="55" width="120" height="80" as="geometry" />
        </mxCell>
        <mxCell id="CR3KZccYkwdmARgacye9-20" style="edgeStyle=orthogonalEdgeStyle;rounded=0;orthogonalLoop=1;jettySize=auto;html=1;entryX=0;entryY=0.5;entryDx=0;entryDy=0;entryPerimeter=0;" parent="CR3KZccYkwdmARgacye9-2" source="CR3KZccYkwdmARgacye9-18" target="CR3KZccYkwdmARgacye9-19" edge="1">
          <mxGeometry relative="1" as="geometry" />
        </mxCell>
        <mxCell id="CR3KZccYkwdmARgacye9-21" style="edgeStyle=orthogonalEdgeStyle;rounded=0;orthogonalLoop=1;jettySize=auto;html=1;entryX=0;entryY=0.5;entryDx=0;entryDy=0;entryPerimeter=0;" parent="CR3KZccYkwdmARgacye9-2" source="CR3KZccYkwdmARgacye9-19" target="CR3KZccYkwdmARgacye9-22" edge="1">
          <mxGeometry relative="1" as="geometry">
            <mxPoint x="2400" y="95" as="targetPoint" />
          </mxGeometry>
        </mxCell>
        <mxCell id="CR3KZccYkwdmARgacye9-22" value="Waiting on&lt;br&gt;Issue" style="points=[[0.145,0.145,0],[0.5,0,0],[0.855,0.145,0],[1,0.5,0],[0.855,0.855,0],[0.5,1,0],[0.145,0.855,0],[0,0.5,0]];shape=mxgraph.bpmn.event;html=1;verticalLabelPosition=bottom;labelBackgroundColor=#ffffff;verticalAlign=top;align=center;perimeter=ellipsePerimeter;outlineConnect=0;aspect=fixed;outline=catching;symbol=signal;" parent="CR3KZccYkwdmARgacye9-2" vertex="1">
          <mxGeometry x="2410" y="70" width="50" height="50" as="geometry" />
        </mxCell>
        <mxCell id="CR3KZccYkwdmARgacye9-23" value="Issue&lt;br&gt;Collaboration" style="points=[[0.25,0,0],[0.5,0,0],[0.75,0,0],[1,0.25,0],[1,0.5,0],[1,0.75,0],[0.75,1,0],[0.5,1,0],[0.25,1,0],[0,0.75,0],[0,0.5,0],[0,0.25,0]];shape=mxgraph.bpmn.task;whiteSpace=wrap;rectStyle=rounded;size=10;html=1;container=1;expand=0;collapsible=0;taskMarker=manual;" parent="CR3KZccYkwdmARgacye9-2" vertex="1">
          <mxGeometry x="2550.25" y="55" width="120" height="80" as="geometry" />
        </mxCell>
        <mxCell id="CR3KZccYkwdmARgacye9-24" style="edgeStyle=orthogonalEdgeStyle;rounded=0;orthogonalLoop=1;jettySize=auto;html=1;entryX=0;entryY=0.5;entryDx=0;entryDy=0;entryPerimeter=0;" parent="CR3KZccYkwdmARgacye9-2" source="CR3KZccYkwdmARgacye9-22" target="CR3KZccYkwdmARgacye9-23" edge="1">
          <mxGeometry relative="1" as="geometry" />
        </mxCell>
        <mxCell id="CR3KZccYkwdmARgacye9-25" value="" style="points=[[0.145,0.145,0],[0.5,0,0],[0.855,0.145,0],[1,0.5,0],[0.855,0.855,0],[0.5,1,0],[0.145,0.855,0],[0,0.5,0]];shape=mxgraph.bpmn.event;html=1;verticalLabelPosition=bottom;labelBackgroundColor=#ffffff;verticalAlign=top;align=center;perimeter=ellipsePerimeter;outlineConnect=0;aspect=fixed;outline=end;symbol=signal;" parent="CR3KZccYkwdmARgacye9-2" vertex="1">
          <mxGeometry x="2760" y="70" width="50" height="50" as="geometry" />
        </mxCell>
        <mxCell id="CR3KZccYkwdmARgacye9-26" style="edgeStyle=orthogonalEdgeStyle;rounded=0;orthogonalLoop=1;jettySize=auto;html=1;entryX=0;entryY=0.5;entryDx=0;entryDy=0;entryPerimeter=0;" parent="CR3KZccYkwdmARgacye9-2" source="CR3KZccYkwdmARgacye9-23" target="CR3KZccYkwdmARgacye9-25" edge="1">
          <mxGeometry relative="1" as="geometry" />
        </mxCell>
        <mxCell id="CR3KZccYkwdmARgacye9-27" value="Collaborator" style="swimlane;startSize=20;horizontal=0;html=1;whiteSpace=wrap;" parent="CR3KZccYkwdmARgacye9-1" vertex="1">
          <mxGeometry x="110" y="120" width="3180" height="180" as="geometry" />
        </mxCell>
        <mxCell id="CR3KZccYkwdmARgacye9-28" value="" style="points=[[0.145,0.145,0],[0.5,0,0],[0.855,0.145,0],[1,0.5,0],[0.855,0.855,0],[0.5,1,0],[0.145,0.855,0],[0,0.5,0]];shape=mxgraph.bpmn.event;html=1;verticalLabelPosition=bottom;labelBackgroundColor=#ffffff;verticalAlign=top;align=center;perimeter=ellipsePerimeter;outlineConnect=0;aspect=fixed;outline=standard;symbol=general;" parent="CR3KZccYkwdmARgacye9-27" vertex="1">
          <mxGeometry x="1510" y="65" width="50" height="50" as="geometry" />
        </mxCell>
        <mxCell id="CR3KZccYkwdmARgacye9-29" value="Search &lt;br&gt;Collaboration" style="points=[[0.25,0,0],[0.5,0,0],[0.75,0,0],[1,0.25,0],[1,0.5,0],[1,0.75,0],[0.75,1,0],[0.5,1,0],[0.25,1,0],[0,0.75,0],[0,0.5,0],[0,0.25,0]];shape=mxgraph.bpmn.task;whiteSpace=wrap;rectStyle=rounded;size=10;html=1;container=1;expand=0;collapsible=0;taskMarker=abstract;" parent="CR3KZccYkwdmARgacye9-27" vertex="1">
          <mxGeometry x="1630" y="50" width="120" height="80" as="geometry" />
        </mxCell>
        <mxCell id="CR3KZccYkwdmARgacye9-30" style="edgeStyle=orthogonalEdgeStyle;rounded=0;orthogonalLoop=1;jettySize=auto;html=1;entryX=0;entryY=0.5;entryDx=0;entryDy=0;entryPerimeter=0;" parent="CR3KZccYkwdmARgacye9-27" source="CR3KZccYkwdmARgacye9-28" target="CR3KZccYkwdmARgacye9-29" edge="1">
          <mxGeometry relative="1" as="geometry" />
        </mxCell>
        <mxCell id="CR3KZccYkwdmARgacye9-31" value="Request Collaboration" style="points=[[0.25,0,0],[0.5,0,0],[0.75,0,0],[1,0.25,0],[1,0.5,0],[1,0.75,0],[0.75,1,0],[0.5,1,0],[0.25,1,0],[0,0.75,0],[0,0.5,0],[0,0.25,0]];shape=mxgraph.bpmn.task;whiteSpace=wrap;rectStyle=rounded;size=10;html=1;container=1;expand=0;collapsible=0;taskMarker=manual;" parent="CR3KZccYkwdmARgacye9-27" vertex="1">
          <mxGeometry x="1898" y="50" width="120" height="80" as="geometry" />
        </mxCell>
        <mxCell id="CR3KZccYkwdmARgacye9-32" value="" style="edgeStyle=orthogonalEdgeStyle;rounded=0;orthogonalLoop=1;jettySize=auto;html=1;entryX=0;entryY=0.5;entryDx=0;entryDy=0;entryPerimeter=0;" parent="CR3KZccYkwdmARgacye9-27" source="CR3KZccYkwdmARgacye9-29" target="CR3KZccYkwdmARgacye9-31" edge="1">
          <mxGeometry relative="1" as="geometry">
            <mxPoint x="1860" y="210" as="sourcePoint" />
            <mxPoint x="1800.5" y="90" as="targetPoint" />
          </mxGeometry>
        </mxCell>
        <mxCell id="CR3KZccYkwdmARgacye9-33" value="" style="points=[[0.145,0.145,0],[0.5,0,0],[0.855,0.145,0],[1,0.5,0],[0.855,0.855,0],[0.5,1,0],[0.145,0.855,0],[0,0.5,0]];shape=mxgraph.bpmn.event;html=1;verticalLabelPosition=bottom;labelBackgroundColor=#ffffff;verticalAlign=top;align=center;perimeter=ellipsePerimeter;outlineConnect=0;aspect=fixed;outline=throwing;symbol=signal;" parent="CR3KZccYkwdmARgacye9-27" vertex="1">
          <mxGeometry x="2090" y="66" width="50" height="50" as="geometry" />
        </mxCell>
        <mxCell id="CR3KZccYkwdmARgacye9-34" style="edgeStyle=orthogonalEdgeStyle;rounded=0;orthogonalLoop=1;jettySize=auto;html=1;entryX=0;entryY=0.5;entryDx=0;entryDy=0;entryPerimeter=0;" parent="CR3KZccYkwdmARgacye9-27" source="CR3KZccYkwdmARgacye9-31" target="CR3KZccYkwdmARgacye9-33" edge="1">
          <mxGeometry relative="1" as="geometry" />
        </mxCell>
        <mxCell id="CR3KZccYkwdmARgacye9-35" value="" style="points=[[0.145,0.145,0],[0.5,0,0],[0.855,0.145,0],[1,0.5,0],[0.855,0.855,0],[0.5,1,0],[0.145,0.855,0],[0,0.5,0]];shape=mxgraph.bpmn.event;html=1;verticalLabelPosition=bottom;labelBackgroundColor=#ffffff;verticalAlign=top;align=center;perimeter=ellipsePerimeter;outlineConnect=0;aspect=fixed;outline=catching;symbol=signal;" parent="CR3KZccYkwdmARgacye9-27" vertex="1">
          <mxGeometry x="2760" y="65" width="50" height="50" as="geometry" />
        </mxCell>
        <mxCell id="CR3KZccYkwdmARgacye9-36" style="edgeStyle=orthogonalEdgeStyle;rounded=0;orthogonalLoop=1;jettySize=auto;html=1;entryX=0;entryY=0.5;entryDx=0;entryDy=0;entryPerimeter=0;" parent="CR3KZccYkwdmARgacye9-27" source="CR3KZccYkwdmARgacye9-33" target="CR3KZccYkwdmARgacye9-35" edge="1">
          <mxGeometry relative="1" as="geometry" />
        </mxCell>
        <mxCell id="CR3KZccYkwdmARgacye9-37" value="Confirm&lt;br&gt;Collaboration" style="points=[[0.25,0,0],[0.5,0,0],[0.75,0,0],[1,0.25,0],[1,0.5,0],[1,0.75,0],[0.75,1,0],[0.5,1,0],[0.25,1,0],[0,0.75,0],[0,0.5,0],[0,0.25,0]];shape=mxgraph.bpmn.task;whiteSpace=wrap;rectStyle=rounded;size=10;html=1;container=1;expand=0;collapsible=0;taskMarker=manual;" parent="CR3KZccYkwdmARgacye9-27" vertex="1">
          <mxGeometry x="2900" y="50" width="120" height="80" as="geometry" />
        </mxCell>
        <mxCell id="CR3KZccYkwdmARgacye9-38" style="edgeStyle=orthogonalEdgeStyle;rounded=0;orthogonalLoop=1;jettySize=auto;html=1;entryX=0;entryY=0.5;entryDx=0;entryDy=0;entryPerimeter=0;" parent="CR3KZccYkwdmARgacye9-27" source="CR3KZccYkwdmARgacye9-35" target="CR3KZccYkwdmARgacye9-37" edge="1">
          <mxGeometry relative="1" as="geometry" />
        </mxCell>
        <mxCell id="CR3KZccYkwdmARgacye9-39" value="" style="points=[[0.145,0.145,0],[0.5,0,0],[0.855,0.145,0],[1,0.5,0],[0.855,0.855,0],[0.5,1,0],[0.145,0.855,0],[0,0.5,0]];shape=mxgraph.bpmn.event;html=1;verticalLabelPosition=bottom;labelBackgroundColor=#ffffff;verticalAlign=top;align=center;perimeter=ellipsePerimeter;outlineConnect=0;aspect=fixed;outline=end;symbol=terminate2;" parent="CR3KZccYkwdmARgacye9-27" vertex="1">
          <mxGeometry x="3101" y="65" width="50" height="50" as="geometry" />
        </mxCell>
        <mxCell id="CR3KZccYkwdmARgacye9-40" style="edgeStyle=orthogonalEdgeStyle;rounded=0;orthogonalLoop=1;jettySize=auto;html=1;entryX=0;entryY=0.5;entryDx=0;entryDy=0;entryPerimeter=0;" parent="CR3KZccYkwdmARgacye9-27" source="CR3KZccYkwdmARgacye9-37" target="CR3KZccYkwdmARgacye9-39" edge="1">
          <mxGeometry relative="1" as="geometry" />
        </mxCell>
        <mxCell id="CR3KZccYkwdmARgacye9-41" value="Collaboration" style="swimlane;fontStyle=0;childLayout=stackLayout;horizontal=1;startSize=30;horizontalStack=0;resizeParent=1;resizeParentMax=0;resizeLast=0;collapsible=1;marginBottom=0;whiteSpace=wrap;html=1;fillColor=#ffe6cc;strokeColor=#d79b00;" parent="CR3KZccYkwdmARgacye9-1" vertex="1">
          <mxGeometry x="260" y="-720" width="220.5" height="550" as="geometry" />
        </mxCell>
        <mxCell id="CR3KZccYkwdmARgacye9-42" value="award_id: int*" style="text;strokeColor=none;fillColor=none;align=left;verticalAlign=middle;spacingLeft=4;spacingRight=4;overflow=hidden;points=[[0,0.5],[1,0.5]];portConstraint=eastwest;rotatable=0;whiteSpace=wrap;html=1;" parent="CR3KZccYkwdmARgacye9-41" vertex="1">
          <mxGeometry y="30" width="220.5" height="30" as="geometry" />
        </mxCell>
        <mxCell id="CR3KZccYkwdmARgacye9-43" value="departement_id: int" style="text;strokeColor=none;fillColor=none;align=left;verticalAlign=middle;spacingLeft=4;spacingRight=4;overflow=hidden;points=[[0,0.5],[1,0.5]];portConstraint=eastwest;rotatable=0;whiteSpace=wrap;html=1;" parent="CR3KZccYkwdmARgacye9-41" vertex="1">
          <mxGeometry y="60" width="220.5" height="30" as="geometry" />
        </mxCell>
        <mxCell id="CR3KZccYkwdmARgacye9-44" value="is_public: bool" style="text;strokeColor=none;fillColor=none;align=left;verticalAlign=middle;spacingLeft=4;spacingRight=4;overflow=hidden;points=[[0,0.5],[1,0.5]];portConstraint=eastwest;rotatable=0;whiteSpace=wrap;html=1;" parent="CR3KZccYkwdmARgacye9-41" vertex="1">
          <mxGeometry y="90" width="220.5" height="30" as="geometry" />
        </mxCell>
        <mxCell id="CR3KZccYkwdmARgacye9-45" value="access_limit: bool" style="text;strokeColor=none;fillColor=none;align=left;verticalAlign=middle;spacingLeft=4;spacingRight=4;overflow=hidden;points=[[0,0.5],[1,0.5]];portConstraint=eastwest;rotatable=0;whiteSpace=wrap;html=1;" parent="CR3KZccYkwdmARgacye9-41" vertex="1">
          <mxGeometry y="120" width="220.5" height="30" as="geometry" />
        </mxCell>
        <mxCell id="CR3KZccYkwdmARgacye9-46" value="title: string*" style="text;strokeColor=none;fillColor=none;align=left;verticalAlign=middle;spacingLeft=4;spacingRight=4;overflow=hidden;points=[[0,0.5],[1,0.5]];portConstraint=eastwest;rotatable=0;whiteSpace=wrap;html=1;" parent="CR3KZccYkwdmARgacye9-41" vertex="1">
          <mxGeometry y="150" width="220.5" height="30" as="geometry" />
        </mxCell>
        <mxCell id="CR3KZccYkwdmARgacye9-47" value="meta: string" style="text;strokeColor=none;fillColor=none;align=left;verticalAlign=middle;spacingLeft=4;spacingRight=4;overflow=hidden;points=[[0,0.5],[1,0.5]];portConstraint=eastwest;rotatable=0;whiteSpace=wrap;html=1;" parent="CR3KZccYkwdmARgacye9-41" vertex="1">
          <mxGeometry y="180" width="220.5" height="30" as="geometry" />
        </mxCell>
        <mxCell id="CR3KZccYkwdmARgacye9-48" value="about: text* (max. 499)" style="text;strokeColor=none;fillColor=none;align=left;verticalAlign=middle;spacingLeft=4;spacingRight=4;overflow=hidden;points=[[0,0.5],[1,0.5]];portConstraint=eastwest;rotatable=0;whiteSpace=wrap;html=1;" parent="CR3KZccYkwdmARgacye9-41" vertex="1">
          <mxGeometry y="210" width="220.5" height="30" as="geometry" />
        </mxCell>
        <mxCell id="CR3KZccYkwdmARgacye9-49" value="contact: text* (max. 199)" style="text;strokeColor=none;fillColor=none;align=left;verticalAlign=middle;spacingLeft=4;spacingRight=4;overflow=hidden;points=[[0,0.5],[1,0.5]];portConstraint=eastwest;rotatable=0;whiteSpace=wrap;html=1;" parent="CR3KZccYkwdmARgacye9-41" vertex="1">
          <mxGeometry y="240" width="220.5" height="30" as="geometry" />
        </mxCell>
        <mxCell id="CR3KZccYkwdmARgacye9-50" value="compensation: float" style="text;strokeColor=none;fillColor=none;align=left;verticalAlign=middle;spacingLeft=4;spacingRight=4;overflow=hidden;points=[[0,0.5],[1,0.5]];portConstraint=eastwest;rotatable=0;whiteSpace=wrap;html=1;" parent="CR3KZccYkwdmARgacye9-41" vertex="1">
          <mxGeometry y="270" width="220.5" height="30" as="geometry" />
        </mxCell>
        <mxCell id="CR3KZccYkwdmARgacye9-51" value="tasks: array (max. 12)" style="text;strokeColor=none;fillColor=none;align=left;verticalAlign=middle;spacingLeft=4;spacingRight=4;overflow=hidden;points=[[0,0.5],[1,0.5]];portConstraint=eastwest;rotatable=0;whiteSpace=wrap;html=1;" parent="CR3KZccYkwdmARgacye9-41" vertex="1">
          <mxGeometry y="300" width="220.5" height="30" as="geometry" />
        </mxCell>
        <mxCell id="CR3KZccYkwdmARgacye9-52" value="skills: array[Object(&lt;br&gt;&amp;nbsp; &amp;nbsp;label, description&lt;br&gt;)], (max. 12)" style="text;strokeColor=none;fillColor=none;align=left;verticalAlign=middle;spacingLeft=4;spacingRight=4;overflow=hidden;points=[[0,0.5],[1,0.5]];portConstraint=eastwest;rotatable=0;whiteSpace=wrap;html=1;" parent="CR3KZccYkwdmARgacye9-41" vertex="1">
          <mxGeometry y="330" width="220.5" height="70" as="geometry" />
        </mxCell>
        <mxCell id="CR3KZccYkwdmARgacye9-53" value="files: array[File] (max. 5, 25MB, *pdf, images/*)" style="text;strokeColor=none;fillColor=none;align=left;verticalAlign=middle;spacingLeft=4;spacingRight=4;overflow=hidden;points=[[0,0.5],[1,0.5]];portConstraint=eastwest;rotatable=0;whiteSpace=wrap;html=1;" parent="CR3KZccYkwdmARgacye9-41" vertex="1">
          <mxGeometry y="400" width="220.5" height="50" as="geometry" />
        </mxCell>
        <mxCell id="CR3KZccYkwdmARgacye9-54" value="participation: array[Object(&lt;br&gt;&amp;nbsp; &amp;nbsp;date_start, duration, limit,&lt;br&gt;&amp;nbsp; &amp;nbsp;geolocation, fee, conference_link,&lt;br&gt;&amp;nbsp; &amp;nbsp;etc.&lt;br&gt;)], (max. 12)" style="text;strokeColor=none;fillColor=none;align=left;verticalAlign=middle;spacingLeft=4;spacingRight=4;overflow=hidden;points=[[0,0.5],[1,0.5]];portConstraint=eastwest;rotatable=0;whiteSpace=wrap;html=1;" parent="CR3KZccYkwdmARgacye9-41" vertex="1">
          <mxGeometry y="450" width="220.5" height="100" as="geometry" />
        </mxCell>
        <mxCell id="CR3KZccYkwdmARgacye9-55" value="&lt;h1&gt;Definition&lt;/h1&gt;&lt;p&gt;&lt;/p&gt;&lt;ul&gt;&lt;li&gt;* -&amp;gt; Required&lt;/li&gt;&lt;/ul&gt;&lt;p&gt;&lt;/p&gt;" style="text;html=1;strokeColor=none;fillColor=none;spacing=5;spacingTop=-20;whiteSpace=wrap;overflow=hidden;rounded=0;" parent="CR3KZccYkwdmARgacye9-1" vertex="1">
          <mxGeometry x="80" y="-850" width="190" height="120" as="geometry" />
        </mxCell>
        <mxCell id="CR3KZccYkwdmARgacye9-56" style="edgeStyle=orthogonalEdgeStyle;rounded=0;orthogonalLoop=1;jettySize=auto;html=1;entryX=0.499;entryY=0.99;entryDx=0;entryDy=0;entryPerimeter=0;dashed=1;" parent="CR3KZccYkwdmARgacye9-1" source="CR3KZccYkwdmARgacye9-4" target="CR3KZccYkwdmARgacye9-54" edge="1">
          <mxGeometry relative="1" as="geometry" />
        </mxCell>
        <mxCell id="CR3KZccYkwdmARgacye9-57" value="Access&lt;br&gt;&quot;business-cockpit&quot;" style="shape=step;perimeter=stepPerimeter;whiteSpace=wrap;html=1;fixedSize=1;" parent="CR3KZccYkwdmARgacye9-1" vertex="1">
          <mxGeometry x="-110" y="-80" width="180" height="50" as="geometry" />
        </mxCell>
        <mxCell id="CR3KZccYkwdmARgacye9-58" value="Collaboration" style="swimlane;fontStyle=0;childLayout=stackLayout;horizontal=1;startSize=30;horizontalStack=0;resizeParent=1;resizeParentMax=0;resizeLast=0;collapsible=1;marginBottom=0;whiteSpace=wrap;html=1;fillColor=#ffe6cc;strokeColor=#d79b00;" parent="CR3KZccYkwdmARgacye9-1" vertex="1">
          <mxGeometry x="720" y="-540" width="220.5" height="280" as="geometry" />
        </mxCell>
        <mxCell id="CR3KZccYkwdmARgacye9-59" value="collaboration_id: int" style="text;strokeColor=none;fillColor=none;align=left;verticalAlign=middle;spacingLeft=4;spacingRight=4;overflow=hidden;points=[[0,0.5],[1,0.5]];portConstraint=eastwest;rotatable=0;whiteSpace=wrap;html=1;" parent="CR3KZccYkwdmARgacye9-58" vertex="1">
          <mxGeometry y="30" width="220.5" height="30" as="geometry" />
        </mxCell>
        <mxCell id="CR3KZccYkwdmARgacye9-60" value="departement_id: int" style="text;strokeColor=none;fillColor=none;align=left;verticalAlign=middle;spacingLeft=4;spacingRight=4;overflow=hidden;points=[[0,0.5],[1,0.5]];portConstraint=eastwest;rotatable=0;whiteSpace=wrap;html=1;" parent="CR3KZccYkwdmARgacye9-58" vertex="1">
          <mxGeometry y="60" width="220.5" height="30" as="geometry" />
        </mxCell>
        <mxCell id="CR3KZccYkwdmARgacye9-61" value="is_public: bool" style="text;strokeColor=none;fillColor=none;align=left;verticalAlign=middle;spacingLeft=4;spacingRight=4;overflow=hidden;points=[[0,0.5],[1,0.5]];portConstraint=eastwest;rotatable=0;whiteSpace=wrap;html=1;" parent="CR3KZccYkwdmARgacye9-58" vertex="1">
          <mxGeometry y="90" width="220.5" height="30" as="geometry" />
        </mxCell>
        <mxCell id="CR3KZccYkwdmARgacye9-62" value="access_limit: bool" style="text;strokeColor=none;fillColor=none;align=left;verticalAlign=middle;spacingLeft=4;spacingRight=4;overflow=hidden;points=[[0,0.5],[1,0.5]];portConstraint=eastwest;rotatable=0;whiteSpace=wrap;html=1;" parent="CR3KZccYkwdmARgacye9-58" vertex="1">
          <mxGeometry y="120" width="220.5" height="30" as="geometry" />
        </mxCell>
        <mxCell id="CR3KZccYkwdmARgacye9-63" value="contact: text* (max. 199)" style="text;strokeColor=none;fillColor=none;align=left;verticalAlign=middle;spacingLeft=4;spacingRight=4;overflow=hidden;points=[[0,0.5],[1,0.5]];portConstraint=eastwest;rotatable=0;whiteSpace=wrap;html=1;" parent="CR3KZccYkwdmARgacye9-58" vertex="1">
          <mxGeometry y="150" width="220.5" height="30" as="geometry" />
        </mxCell>
        <mxCell id="CR3KZccYkwdmARgacye9-64" value="participation: array[Object(&lt;br&gt;&amp;nbsp; &amp;nbsp;date_start, duration, limit,&lt;br&gt;&amp;nbsp; &amp;nbsp;geolocation, fee, conference_link,&lt;br&gt;&amp;nbsp; &amp;nbsp;etc.&lt;br&gt;)], (max. 12)" style="text;strokeColor=none;fillColor=none;align=left;verticalAlign=middle;spacingLeft=4;spacingRight=4;overflow=hidden;points=[[0,0.5],[1,0.5]];portConstraint=eastwest;rotatable=0;whiteSpace=wrap;html=1;" parent="CR3KZccYkwdmARgacye9-58" vertex="1">
          <mxGeometry y="180" width="220.5" height="100" as="geometry" />
        </mxCell>
        <mxCell id="CR3KZccYkwdmARgacye9-65" style="edgeStyle=orthogonalEdgeStyle;rounded=0;orthogonalLoop=1;jettySize=auto;html=1;entryX=0.457;entryY=0.997;entryDx=0;entryDy=0;entryPerimeter=0;dashed=1;" parent="CR3KZccYkwdmARgacye9-1" source="CR3KZccYkwdmARgacye9-9" target="CR3KZccYkwdmARgacye9-64" edge="1">
          <mxGeometry relative="1" as="geometry" />
        </mxCell>
        <mxCell id="CR3KZccYkwdmARgacye9-66" value="Collaboration" style="swimlane;fontStyle=0;childLayout=stackLayout;horizontal=1;startSize=30;horizontalStack=0;resizeParent=1;resizeParentMax=0;resizeLast=0;collapsible=1;marginBottom=0;whiteSpace=wrap;html=1;fillColor=#ffe6cc;strokeColor=#d79b00;" parent="CR3KZccYkwdmARgacye9-1" vertex="1">
          <mxGeometry x="1160" y="-480" width="220.5" height="60" as="geometry" />
        </mxCell>
        <mxCell id="CR3KZccYkwdmARgacye9-67" value="collaboration_id: int" style="text;strokeColor=none;fillColor=none;align=left;verticalAlign=middle;spacingLeft=4;spacingRight=4;overflow=hidden;points=[[0,0.5],[1,0.5]];portConstraint=eastwest;rotatable=0;whiteSpace=wrap;html=1;" parent="CR3KZccYkwdmARgacye9-66" vertex="1">
          <mxGeometry y="30" width="220.5" height="30" as="geometry" />
        </mxCell>
        <mxCell id="CR3KZccYkwdmARgacye9-68" style="edgeStyle=orthogonalEdgeStyle;rounded=0;orthogonalLoop=1;jettySize=auto;html=1;entryX=0.472;entryY=0.974;entryDx=0;entryDy=0;entryPerimeter=0;dashed=1;" parent="CR3KZccYkwdmARgacye9-1" source="CR3KZccYkwdmARgacye9-14" target="CR3KZccYkwdmARgacye9-67" edge="1">
          <mxGeometry relative="1" as="geometry" />
        </mxCell>
        <mxCell id="CR3KZccYkwdmARgacye9-69" value="Remove Collaboration&lt;br&gt;&lt;ul&gt;&lt;li&gt;No collaborators exist&lt;/li&gt;&lt;li&gt;&lt;span style=&quot;background-color: initial;&quot;&gt;If no Flags &quot;date_issued&quot; at collaborators, collaboration can also be deleted&lt;/span&gt;&lt;br&gt;&lt;/li&gt;&lt;ul&gt;&lt;li&gt;&lt;span style=&quot;background-color: initial;&quot;&gt;According to DB-Structure, collaborators must be deleted first, before collaboration can be deleted&amp;nbsp;&lt;/span&gt;&lt;/li&gt;&lt;/ul&gt;&lt;li&gt;Remove Files&lt;/li&gt;&lt;/ul&gt;" style="shape=note;whiteSpace=wrap;html=1;backgroundOutline=1;darkOpacity=0.05;verticalAlign=top;align=left;spacing=12;" parent="CR3KZccYkwdmARgacye9-1" vertex="1">
          <mxGeometry x="1280" y="-390" width="300" height="180" as="geometry" />
        </mxCell>
        <mxCell id="CR3KZccYkwdmARgacye9-70" value="&lt;div&gt;Only accessible Collaborations&lt;/div&gt;&lt;ul&gt;&lt;li&gt;Collaboration is Public&lt;/li&gt;&lt;li&gt;Collaboration is not archived&lt;/li&gt;&lt;li&gt;Entity still exists&lt;/li&gt;&lt;li&gt;Collaborator (user_id) should not exists&lt;/li&gt;&lt;ul&gt;&lt;li&gt;Check Flag &#39;date_confirmed&quot;&lt;/li&gt;&lt;/ul&gt;&lt;li&gt;Check Flag &quot;Access_limit&quot; &amp;gt; 0, that limit of active collaborators is exceeding limits&lt;/li&gt;&lt;ul&gt;&lt;li&gt;&quot;archived&quot; == Null&lt;/li&gt;&lt;li&gt;&quot;date_issued&quot; == Null&lt;/li&gt;&lt;/ul&gt;&lt;/ul&gt;&lt;div&gt;&lt;br&gt;&lt;/div&gt;" style="shape=note;whiteSpace=wrap;html=1;backgroundOutline=1;darkOpacity=0.05;verticalAlign=top;align=left;spacing=12;" parent="CR3KZccYkwdmARgacye9-1" vertex="1">
          <mxGeometry x="1414" y="370" width="240" height="240" as="geometry" />
        </mxCell>
        <mxCell id="CR3KZccYkwdmARgacye9-71" style="edgeStyle=orthogonalEdgeStyle;rounded=0;orthogonalLoop=1;jettySize=auto;html=1;entryX=0.5;entryY=1;entryDx=0;entryDy=0;entryPerimeter=0;dashed=1;" parent="CR3KZccYkwdmARgacye9-1" source="CR3KZccYkwdmARgacye9-72" target="CR3KZccYkwdmARgacye9-29" edge="1">
          <mxGeometry relative="1" as="geometry">
            <mxPoint x="1800.249999999999" y="329.99999999999955" as="targetPoint" />
          </mxGeometry>
        </mxCell>
        <mxCell id="CR3KZccYkwdmARgacye9-72" value="Collaboration" style="swimlane;fontStyle=0;childLayout=stackLayout;horizontal=1;startSize=30;horizontalStack=0;resizeParent=1;resizeParentMax=0;resizeLast=0;collapsible=1;marginBottom=0;whiteSpace=wrap;html=1;fillColor=#ffe6cc;strokeColor=#d79b00;" parent="CR3KZccYkwdmARgacye9-1" vertex="1">
          <mxGeometry x="1690" y="510" width="220.5" height="60" as="geometry" />
        </mxCell>
        <mxCell id="CR3KZccYkwdmARgacye9-73" value="Collection: [{TBA}]" style="text;strokeColor=none;fillColor=none;align=left;verticalAlign=middle;spacingLeft=4;spacingRight=4;overflow=hidden;points=[[0,0.5],[1,0.5]];portConstraint=eastwest;rotatable=0;whiteSpace=wrap;html=1;" parent="CR3KZccYkwdmARgacye9-72" vertex="1">
          <mxGeometry y="30" width="220.5" height="30" as="geometry" />
        </mxCell>
        <mxCell id="CR3KZccYkwdmARgacye9-74" value="API&lt;br&gt;Post / get etc." style="ellipse;shape=cloud;whiteSpace=wrap;html=1;" parent="CR3KZccYkwdmARgacye9-1" vertex="1">
          <mxGeometry x="490" y="-900" width="120" height="80" as="geometry" />
        </mxCell>
        <mxCell id="CR3KZccYkwdmARgacye9-75" value="Collaboration" style="swimlane;fontStyle=0;childLayout=stackLayout;horizontal=1;startSize=30;horizontalStack=0;resizeParent=1;resizeParentMax=0;resizeLast=0;collapsible=1;marginBottom=0;whiteSpace=wrap;html=1;fillColor=#ffe6cc;strokeColor=#d79b00;" parent="CR3KZccYkwdmARgacye9-1" vertex="1">
          <mxGeometry x="1957.75" y="510" width="220.5" height="90" as="geometry" />
        </mxCell>
        <mxCell id="CR3KZccYkwdmARgacye9-76" value="collaboration_id: int" style="text;strokeColor=none;fillColor=none;align=left;verticalAlign=middle;spacingLeft=4;spacingRight=4;overflow=hidden;points=[[0,0.5],[1,0.5]];portConstraint=eastwest;rotatable=0;whiteSpace=wrap;html=1;" parent="CR3KZccYkwdmARgacye9-75" vertex="1">
          <mxGeometry y="30" width="220.5" height="30" as="geometry" />
        </mxCell>
        <mxCell id="CR3KZccYkwdmARgacye9-77" value="contact: text" style="text;strokeColor=none;fillColor=none;align=left;verticalAlign=middle;spacingLeft=4;spacingRight=4;overflow=hidden;points=[[0,0.5],[1,0.5]];portConstraint=eastwest;rotatable=0;whiteSpace=wrap;html=1;" parent="CR3KZccYkwdmARgacye9-75" vertex="1">
          <mxGeometry y="60" width="220.5" height="30" as="geometry" />
        </mxCell>
        <mxCell id="CR3KZccYkwdmARgacye9-78" style="edgeStyle=orthogonalEdgeStyle;rounded=0;orthogonalLoop=1;jettySize=auto;html=1;entryX=0.5;entryY=0;entryDx=0;entryDy=0;dashed=1;" parent="CR3KZccYkwdmARgacye9-1" source="CR3KZccYkwdmARgacye9-31" target="CR3KZccYkwdmARgacye9-75" edge="1">
          <mxGeometry relative="1" as="geometry" />
        </mxCell>
        <mxCell id="CR3KZccYkwdmARgacye9-79" value="&lt;div&gt;Add Flag&lt;/div&gt;&lt;div&gt;&lt;ul&gt;&lt;li&gt;date_requested&lt;/li&gt;&lt;/ul&gt;&lt;/div&gt;" style="shape=note;whiteSpace=wrap;html=1;backgroundOutline=1;darkOpacity=0.05;verticalAlign=top;align=left;spacing=12;" parent="CR3KZccYkwdmARgacye9-1" vertex="1">
          <mxGeometry x="2090" y="400" width="240" height="80" as="geometry" />
        </mxCell>
        <mxCell id="CR3KZccYkwdmARgacye9-80" style="edgeStyle=orthogonalEdgeStyle;rounded=0;orthogonalLoop=1;jettySize=auto;html=1;entryX=0.5;entryY=1;entryDx=0;entryDy=0;entryPerimeter=0;dashed=1;" parent="CR3KZccYkwdmARgacye9-1" source="CR3KZccYkwdmARgacye9-33" target="CR3KZccYkwdmARgacye9-18" edge="1">
          <mxGeometry relative="1" as="geometry" />
        </mxCell>
        <mxCell id="CR3KZccYkwdmARgacye9-81" value="Collaboration" style="swimlane;fontStyle=0;childLayout=stackLayout;horizontal=1;startSize=30;horizontalStack=0;resizeParent=1;resizeParentMax=0;resizeLast=0;collapsible=1;marginBottom=0;whiteSpace=wrap;html=1;fillColor=#ffe6cc;strokeColor=#d79b00;" parent="CR3KZccYkwdmARgacye9-1" vertex="1">
          <mxGeometry x="2270" y="-330" width="220.5" height="60" as="geometry" />
        </mxCell>
        <mxCell id="CR3KZccYkwdmARgacye9-82" value="collaboration_id: int" style="text;strokeColor=none;fillColor=none;align=left;verticalAlign=middle;spacingLeft=4;spacingRight=4;overflow=hidden;points=[[0,0.5],[1,0.5]];portConstraint=eastwest;rotatable=0;whiteSpace=wrap;html=1;" parent="CR3KZccYkwdmARgacye9-81" vertex="1">
          <mxGeometry y="30" width="220.5" height="30" as="geometry" />
        </mxCell>
        <mxCell id="CR3KZccYkwdmARgacye9-83" value="&lt;div&gt;Add Flag&lt;/div&gt;&lt;div&gt;&lt;ul&gt;&lt;li&gt;date_released&lt;/li&gt;&lt;/ul&gt;&lt;/div&gt;" style="shape=note;whiteSpace=wrap;html=1;backgroundOutline=1;darkOpacity=0.05;verticalAlign=top;align=left;spacing=12;" parent="CR3KZccYkwdmARgacye9-1" vertex="1">
          <mxGeometry x="2170" y="-240" width="180" height="80" as="geometry" />
        </mxCell>
        <mxCell id="CR3KZccYkwdmARgacye9-84" style="edgeStyle=orthogonalEdgeStyle;rounded=0;orthogonalLoop=1;jettySize=auto;html=1;entryX=0.498;entryY=1.026;entryDx=0;entryDy=0;entryPerimeter=0;" parent="CR3KZccYkwdmARgacye9-1" source="CR3KZccYkwdmARgacye9-19" target="CR3KZccYkwdmARgacye9-82" edge="1">
          <mxGeometry relative="1" as="geometry" />
        </mxCell>
        <mxCell id="CR3KZccYkwdmARgacye9-85" value="Collaboration" style="swimlane;fontStyle=0;childLayout=stackLayout;horizontal=1;startSize=30;horizontalStack=0;resizeParent=1;resizeParentMax=0;resizeLast=0;collapsible=1;marginBottom=0;whiteSpace=wrap;html=1;fillColor=#ffe6cc;strokeColor=#d79b00;" parent="CR3KZccYkwdmARgacye9-1" vertex="1">
          <mxGeometry x="2610" y="-330" width="220.5" height="60" as="geometry" />
        </mxCell>
        <mxCell id="CR3KZccYkwdmARgacye9-86" value="collaboration_id: int" style="text;strokeColor=none;fillColor=none;align=left;verticalAlign=middle;spacingLeft=4;spacingRight=4;overflow=hidden;points=[[0,0.5],[1,0.5]];portConstraint=eastwest;rotatable=0;whiteSpace=wrap;html=1;" parent="CR3KZccYkwdmARgacye9-85" vertex="1">
          <mxGeometry y="30" width="220.5" height="30" as="geometry" />
        </mxCell>
        <mxCell id="CR3KZccYkwdmARgacye9-87" value="&lt;div&gt;Add Flag&lt;/div&gt;&lt;div&gt;&lt;ul&gt;&lt;li&gt;date_issued&lt;/li&gt;&lt;/ul&gt;&lt;/div&gt;" style="shape=note;whiteSpace=wrap;html=1;backgroundOutline=1;darkOpacity=0.05;verticalAlign=top;align=left;spacing=12;" parent="CR3KZccYkwdmARgacye9-1" vertex="1">
          <mxGeometry x="2740" y="-240" width="180" height="80" as="geometry" />
        </mxCell>
        <mxCell id="CR3KZccYkwdmARgacye9-88" style="edgeStyle=orthogonalEdgeStyle;rounded=0;orthogonalLoop=1;jettySize=auto;html=1;entryX=0.499;entryY=1.004;entryDx=0;entryDy=0;entryPerimeter=0;" parent="CR3KZccYkwdmARgacye9-1" source="CR3KZccYkwdmARgacye9-23" target="CR3KZccYkwdmARgacye9-86" edge="1">
          <mxGeometry relative="1" as="geometry" />
        </mxCell>
        <mxCell id="CR3KZccYkwdmARgacye9-89" style="edgeStyle=orthogonalEdgeStyle;rounded=0;orthogonalLoop=1;jettySize=auto;html=1;entryX=0.5;entryY=0;entryDx=0;entryDy=0;entryPerimeter=0;dashed=1;" parent="CR3KZccYkwdmARgacye9-1" source="CR3KZccYkwdmARgacye9-25" target="CR3KZccYkwdmARgacye9-35" edge="1">
          <mxGeometry relative="1" as="geometry" />
        </mxCell>
        <mxCell id="CR3KZccYkwdmARgacye9-90" value="Collaboration" style="swimlane;fontStyle=0;childLayout=stackLayout;horizontal=1;startSize=30;horizontalStack=0;resizeParent=1;resizeParentMax=0;resizeLast=0;collapsible=1;marginBottom=0;whiteSpace=wrap;html=1;fillColor=#ffe6cc;strokeColor=#d79b00;" parent="CR3KZccYkwdmARgacye9-1" vertex="1">
          <mxGeometry x="2959.75" y="510" width="220.5" height="200" as="geometry" />
        </mxCell>
        <mxCell id="CR3KZccYkwdmARgacye9-91" value="collaboration_id: int" style="text;strokeColor=none;fillColor=none;align=left;verticalAlign=middle;spacingLeft=4;spacingRight=4;overflow=hidden;points=[[0,0.5],[1,0.5]];portConstraint=eastwest;rotatable=0;whiteSpace=wrap;html=1;" parent="CR3KZccYkwdmARgacye9-90" vertex="1">
          <mxGeometry y="30" width="220.5" height="30" as="geometry" />
        </mxCell>
        <mxCell id="CR3KZccYkwdmARgacye9-92" value="is_public: bool" style="text;strokeColor=none;fillColor=none;align=left;verticalAlign=middle;spacingLeft=4;spacingRight=4;overflow=hidden;points=[[0,0.5],[1,0.5]];portConstraint=eastwest;rotatable=0;whiteSpace=wrap;html=1;" parent="CR3KZccYkwdmARgacye9-90" vertex="1">
          <mxGeometry y="60" width="220.5" height="30" as="geometry" />
        </mxCell>
        <mxCell id="CR3KZccYkwdmARgacye9-93" value="period_start*: date" style="text;strokeColor=none;fillColor=none;align=left;verticalAlign=middle;spacingLeft=4;spacingRight=4;overflow=hidden;points=[[0,0.5],[1,0.5]];portConstraint=eastwest;rotatable=0;whiteSpace=wrap;html=1;" parent="CR3KZccYkwdmARgacye9-90" vertex="1">
          <mxGeometry y="90" width="220.5" height="30" as="geometry" />
        </mxCell>
        <mxCell id="CR3KZccYkwdmARgacye9-94" value="period_duration: string" style="text;strokeColor=none;fillColor=none;align=left;verticalAlign=middle;spacingLeft=4;spacingRight=4;overflow=hidden;points=[[0,0.5],[1,0.5]];portConstraint=eastwest;rotatable=0;whiteSpace=wrap;html=1;" parent="CR3KZccYkwdmARgacye9-90" vertex="1">
          <mxGeometry y="120" width="220.5" height="30" as="geometry" />
        </mxCell>
        <mxCell id="CR3KZccYkwdmARgacye9-95" value="review: Object{&lt;br&gt;&amp;nbsp; TBA&lt;br&gt;}" style="text;strokeColor=none;fillColor=none;align=left;verticalAlign=middle;spacingLeft=4;spacingRight=4;overflow=hidden;points=[[0,0.5],[1,0.5]];portConstraint=eastwest;rotatable=0;whiteSpace=wrap;html=1;" parent="CR3KZccYkwdmARgacye9-90" vertex="1">
          <mxGeometry y="150" width="220.5" height="50" as="geometry" />
        </mxCell>
        <mxCell id="CR3KZccYkwdmARgacye9-96" style="edgeStyle=orthogonalEdgeStyle;rounded=0;orthogonalLoop=1;jettySize=auto;html=1;entryX=0.5;entryY=0;entryDx=0;entryDy=0;dashed=1;exitX=0.5;exitY=1;exitDx=0;exitDy=0;exitPerimeter=0;" parent="CR3KZccYkwdmARgacye9-1" source="CR3KZccYkwdmARgacye9-37" target="CR3KZccYkwdmARgacye9-90" edge="1">
          <mxGeometry relative="1" as="geometry">
            <mxPoint x="3060.25" y="250" as="sourcePoint" />
          </mxGeometry>
        </mxCell>
        <mxCell id="CR3KZccYkwdmARgacye9-97" value="&lt;div&gt;Add Flag&lt;/div&gt;&lt;div&gt;&lt;ul&gt;&lt;li&gt;date_confirmed&lt;/li&gt;&lt;/ul&gt;&lt;/div&gt;" style="shape=note;whiteSpace=wrap;html=1;backgroundOutline=1;darkOpacity=0.05;verticalAlign=top;align=left;spacing=12;" parent="CR3KZccYkwdmARgacye9-1" vertex="1">
          <mxGeometry x="3082.25" y="400" width="177.75" height="80" as="geometry" />
        </mxCell>
        <mxCell id="rrcwnO8PEn48VpUWGCyT-0" value="Data Collections" style="ellipse;shape=cloud;whiteSpace=wrap;html=1;" parent="CR3KZccYkwdmARgacye9-1" vertex="1">
          <mxGeometry x="630" y="-880" width="120" height="80" as="geometry" />
        </mxCell>
        <mxCell id="rrcwnO8PEn48VpUWGCyT-1" value="UI Prototype" style="ellipse;shape=cloud;whiteSpace=wrap;html=1;" parent="CR3KZccYkwdmARgacye9-1" vertex="1">
          <mxGeometry x="550" y="-810" width="120" height="80" as="geometry" />
        </mxCell>
        <mxCell id="rrcwnO8PEn48VpUWGCyT-2" value="Access &lt;br&gt;&amp;amp; Restrictions" style="ellipse;shape=cloud;whiteSpace=wrap;html=1;" parent="CR3KZccYkwdmARgacye9-1" vertex="1">
          <mxGeometry x="680" y="-790" width="120" height="80" as="geometry" />
        </mxCell>
        <mxCell id="rrcwnO8PEn48VpUWGCyT-3" value="CTA &amp;amp;&amp;nbsp;&lt;br&gt;Flags" style="ellipse;shape=cloud;whiteSpace=wrap;html=1;" parent="CR3KZccYkwdmARgacye9-1" vertex="1">
          <mxGeometry x="770" y="-960" width="120" height="80" as="geometry" />
        </mxCell>
        <mxCell id="rrcwnO8PEn48VpUWGCyT-4" value="Processes" style="ellipse;shape=cloud;whiteSpace=wrap;html=1;" parent="CR3KZccYkwdmARgacye9-1" vertex="1">
          <mxGeometry x="580" y="-990" width="120" height="80" as="geometry" />
        </mxCell>
      </root>
    </mxGraphModel>
  </diagram>
</mxfile>
